<?xml version="1.0" encoding="UTF-8"?>
<svg version="1.1" xmlns="http://www.w3.org/2000/svg" width="500" height="500">
<path d="M0 0 C165 0 330 0 500 0 C500 165 500 330 500 500 C335 500 170 500 0 500 C0 335 0 170 0 0 Z " fill="#FEFEFE" transform="translate(0,0)"/>
<path d="M0 0 C5.38327632 4.3496054 8.82421956 9.38356053 11.9296875 15.53515625 C12.30738281 16.28023437 12.68507813 17.0253125 13.07421875 17.79296875 C14.2758334 21.64471983 14.26952339 25.27216419 14.2421875 29.28515625 C14.23944824 30.08703369 14.23670898 30.88891113 14.23388672 31.71508789 C14.10718266 38.87969254 12.98881219 44.44646921 8.9296875 50.53515625 C9.48841553 50.70120361 10.04714355 50.86725098 10.62280273 51.03833008 C13.20471823 51.80658917 15.78595329 52.57711139 18.3671875 53.34765625 C19.24568359 53.60869141 20.12417969 53.86972656 21.02929688 54.13867188 C50.56250743 62.96594145 77.55750876 76.8500109 98.9296875 99.53515625 C103.42921175 97.07700406 107.05273025 93.97526779 110.8671875 90.59765625 C112.20413832 89.42675354 113.54138481 88.25618835 114.87890625 87.0859375 C115.55356934 86.49377441 116.22823242 85.90161133 116.92333984 85.29150391 C121.67943754 81.12803751 126.48138236 77.01808662 131.29833984 72.92529297 C132.37719333 72.00595868 133.45310036 71.08315426 134.52587891 70.15673828 C136.00709935 68.87824558 137.49940243 67.61262673 138.9921875 66.34765625 C139.82878906 65.63222656 140.66539062 64.91679687 141.52734375 64.1796875 C144.10949612 62.41206774 145.82307083 61.77136182 148.9296875 61.53515625 C164.61783261 69.02268005 174.25084361 91.16506212 180.0703125 106.55078125 C180.94014955 109.5714881 181.22906846 112.08720611 181.2421875 115.22265625 C181.25894531 116.15464844 181.27570313 117.08664063 181.29296875 118.046875 C180.84971677 121.08291276 180.2830086 121.62919412 177.9296875 123.53515625 C175.34251404 124.69316101 175.34251404 124.69316101 172.20483398 125.8034668 C171.0302916 126.22367599 169.85574921 126.64388519 168.64561462 127.076828 C167.3641003 127.52545361 166.08248676 127.97379588 164.80078125 128.421875 C163.48683198 128.88775402 162.17311942 129.35430112 160.8596344 129.82148743 C158.11015153 130.79746153 155.35875792 131.76776329 152.60571289 132.73364258 C149.07306529 133.97315732 145.54415167 135.22290538 142.01644802 136.47641277 C139.30572498 137.43908024 136.59377458 138.39824608 133.88136482 139.35614967 C132.57935083 139.81602981 131.27756538 140.27655755 129.97601128 140.73773766 C128.16021258 141.38011259 126.34271886 142.0176902 124.52514648 142.6550293 C123.49050766 143.01904343 122.45586884 143.38305756 121.38987732 143.75810242 C118.9296875 144.53515625 118.9296875 144.53515625 116.9296875 144.53515625 C117.2596875 145.19515625 117.5896875 145.85515625 117.9296875 146.53515625 C117.9696795 148.53475637 117.97315549 150.53562867 117.9296875 152.53515625 C117.2284375 152.87546875 116.5271875 153.21578125 115.8046875 153.56640625 C109.72226583 156.67373036 105.21719761 159.77848136 100.78125 164.99609375 C98.9296875 166.53515625 98.9296875 166.53515625 96.375 166.94140625 C92.46847307 166.29239858 91.15529757 163.62628135 88.9296875 160.53515625 C88.5996875 159.87515625 88.2696875 159.21515625 87.9296875 158.53515625 C84.70321208 162.38210771 81.94282388 166.44924645 79.19921875 170.64453125 C77.9296875 172.53515625 77.9296875 172.53515625 76.9296875 173.53515625 C75.73730469 173.59960938 74.54492188 173.6640625 73.31640625 173.73046875 C68.12865707 174.33318521 65.42560085 176.90540482 61.7421875 180.41015625 C60.42913567 181.60369049 59.11532028 182.79638519 57.80078125 183.98828125 C57.15093262 184.58705078 56.50108398 185.18582031 55.83154297 185.80273438 C53.05367107 188.33312962 50.18619211 190.74928124 47.3046875 193.16015625 C46.24971699 194.04914343 45.19502928 194.9384663 44.140625 195.828125 C43.61823242 196.26817871 43.09583984 196.70823242 42.55761719 197.16162109 C40.83793964 198.61256678 39.12171096 200.06750949 37.40625 201.5234375 C36.82439941 202.0169873 36.24254883 202.51053711 35.64306641 203.01904297 C34.5381866 203.95641179 33.43366706 204.89420551 32.32958984 205.83251953 C30.86732711 207.07190776 29.39864333 208.30370822 27.9296875 209.53515625 C27.1046875 210.32019531 26.2796875 211.10523438 25.4296875 211.9140625 C22.9296875 213.53515625 22.9296875 213.53515625 19.91796875 213.515625 C8.16853185 209.660581 1.2603908 196.09060966 -4.08203125 185.6875 C-8.88461696 175.9801197 -14.1838904 164.64180089 -12.0703125 153.53515625 C-9.54692471 150.14286606 -5.90792503 149.15043567 -2.0625 147.8203125 C-1.35642105 147.56823029 -0.6503421 147.31614807 0.07713318 147.056427 C2.40025183 146.22889896 4.72735432 145.41324788 7.0546875 144.59765625 C8.66559373 144.02667287 10.27618625 143.45480368 11.88647461 142.88208008 C14.37792587 141.99602389 16.86957166 141.1105716 19.36235046 140.22825623 C25.10590552 138.19359386 30.83284978 136.11724414 36.55078125 134.01171875 C37.31056274 133.73249069 38.07034424 133.45326263 38.85314941 133.16557312 C41.78731645 132.08703472 44.72139541 131.00834167 47.65264893 129.92190552 C49.66140236 129.17798428 51.67223385 128.4399641 53.68359375 127.703125 C54.82127197 127.28313232 55.9589502 126.86313965 57.13110352 126.43041992 C59.9296875 125.53515625 59.9296875 125.53515625 62.9296875 125.53515625 C62.4140625 124.81328125 61.8984375 124.09140625 61.3671875 123.34765625 C59.9296875 120.53515625 59.9296875 120.53515625 59.95703125 118.0703125 C61.37725893 114.36859458 63.51981029 113.81083923 67.0546875 112.16015625 C71.37862567 110.01237952 74.70080799 108.13715072 77.9296875 104.53515625 C80.63504464 101.55524554 80.63504464 101.55524554 83.6796875 101.34765625 C86.29985724 102.73052361 87.4572445 103.97775526 88.9296875 106.53515625 C88.9296875 107.19515625 88.9296875 107.85515625 88.9296875 108.53515625 C91.2396875 106.88515625 93.5496875 105.23515625 95.9296875 103.53515625 C86.98830615 83.18895174 54.42107527 70.04610033 35.0703125 62.40625 C30.00142697 60.4957149 30.00142697 60.4957149 24.9296875 61.53515625 C23.14250878 63.5321917 23.14250878 63.5321917 21.56640625 66.109375 C20.93460449 67.07576904 20.30280273 68.04216309 19.65185547 69.0378418 C18.64469482 70.61432495 18.64469482 70.61432495 17.6171875 72.22265625 C16.17694162 74.43174653 14.73550934 76.64006373 13.29296875 78.84765625 C12.74533875 79.69060493 12.74533875 79.69060493 12.18664551 80.55058289 C8.05302737 86.90947156 3.75865876 93.15539938 -0.53955078 99.40356445 C-3.75213467 104.08854709 -6.90552447 108.80143073 -9.98046875 113.578125 C-10.61452637 114.55563721 -11.24858398 115.53314941 -11.90185547 116.5402832 C-13.11447969 118.4153684 -14.31586508 120.2977828 -15.50439453 122.18823242 C-16.04563965 123.02201416 -16.58688477 123.8557959 -17.14453125 124.71484375 C-17.61463623 125.45460449 -18.08474121 126.19436523 -18.5690918 126.95654297 C-19.06449463 127.47748535 -19.55989746 127.99842773 -20.0703125 128.53515625 C-21.3903125 128.53515625 -22.7103125 128.53515625 -24.0703125 128.53515625 C-25.5703125 126.7265625 -25.5703125 126.7265625 -27.0703125 124.09765625 C-30.08197376 119.08035675 -33.29141473 114.29489044 -36.6953125 109.53515625 C-41.55971806 102.70113285 -46.32736254 95.80793279 -51.04418945 88.87133789 C-53.99509444 84.54059311 -56.97729524 80.23529283 -60.00390625 75.95703125 C-60.65117676 75.04091064 -61.29844727 74.12479004 -61.96533203 73.1809082 C-63.22400768 71.40315305 -64.48658233 69.62815073 -65.75341797 67.85620117 C-66.60057373 66.65894409 -66.60057373 66.65894409 -67.46484375 65.4375 C-67.96862549 64.73101318 -68.47240723 64.02452637 -68.99145508 63.29663086 C-70.0703125 61.53515625 -70.0703125 61.53515625 -70.0703125 59.53515625 C-86.58385299 63.49713813 -103.28120159 71.65689342 -117.0703125 81.53515625 C-116.28914063 81.3753125 -115.50796875 81.21546875 -114.703125 81.05078125 C-95.46248593 78.31985183 -76.18137829 81.13509246 -60.28417969 92.8515625 C-47.27824073 103.40057364 -36.68557951 118.30737712 -34.75317383 135.32861328 C-34.59730024 138.27992034 -34.55146601 141.20483587 -34.5703125 144.16015625 C-34.57603271 145.20977539 -34.58175293 146.25939453 -34.58764648 147.34082031 C-34.96820437 164.06486598 -41.17464872 179.07587532 -52.71484375 191.375 C-67.62880487 205.05231426 -85.00302622 211.11513562 -105.0703125 210.53515625 C-106.12992188 210.52742188 -106.12992188 210.52742188 -107.2109375 210.51953125 C-122.46839486 209.70424727 -138.29494457 200.43146643 -148.5234375 189.46875 C-151.77557572 185.40357722 -154.46011188 181.03119559 -157.0703125 176.53515625 C-157.78574219 175.32859375 -157.78574219 175.32859375 -158.515625 174.09765625 C-166.20594329 160.09851397 -166.91632096 143.49635966 -163.234375 128.18359375 C-159.55181547 116.64161187 -153.87931757 106.92108732 -145.0703125 98.53515625 C-144.34972656 97.83003906 -143.62914062 97.12492187 -142.88671875 96.3984375 C-138.25193625 92.0610742 -133.33799728 88.67285193 -127.9296875 85.37109375 C-124.97424508 83.47347362 -122.2666711 81.39468581 -119.5078125 79.22265625 C-100.97904752 65.23106321 -78.71846766 56.23571676 -56.0703125 51.53515625 C-57.45354741 48.05257938 -57.45354741 48.05257938 -58.921875 44.60546875 C-62.12821672 36.5410335 -62.74183711 26.36432169 -59.8828125 18.09765625 C-53.70687883 5.95875214 -46.9386245 -1.2403792 -34.0703125 -6.46484375 C-22.06649328 -9.55365393 -10.0197618 -7.08945411 0 0 Z " fill="#850B0B" transform="translate(248.0703125,137.46484375)"/>
<path d="M0 0 C12.32119135 4.92847654 19.57520706 18.78418064 25.5 29.9375 C25.91685059 30.72092773 26.33370117 31.50435547 26.76318359 32.31152344 C30.31956388 39.21551159 33.56871494 46.22278242 33.5 54.125 C33.50773438 55.02992188 33.51546875 55.93484375 33.5234375 56.8671875 C33.03269114 59.80204316 32.41007501 60.38887402 30.125 62.25 C27.53782654 63.40800476 27.53782654 63.40800476 24.40014648 64.51831055 C23.2256041 64.93851974 22.05106171 65.35872894 20.84092712 65.79167175 C19.5594128 66.24029736 18.27779926 66.68863963 16.99609375 67.13671875 C15.68214448 67.60259777 14.36843192 68.06914487 13.0549469 68.53633118 C10.30546403 69.51230528 7.55407042 70.48260704 4.80102539 71.44848633 C1.26837779 72.68800107 -2.26053583 73.93774913 -5.78823948 75.19125652 C-8.49896252 76.15392399 -11.21091292 77.11308983 -13.92332268 78.07099342 C-15.22533667 78.53087356 -16.52712212 78.9914013 -17.82867622 79.45258141 C-19.64447492 80.09495634 -21.46196864 80.73253395 -23.27954102 81.36987305 C-24.31417984 81.73388718 -25.34881866 82.09790131 -26.41481018 82.47294617 C-28.875 83.25 -28.875 83.25 -30.875 83.25 C-30.545 83.91 -30.215 84.57 -29.875 85.25 C-29.835008 87.24960012 -29.83153201 89.25047242 -29.875 91.25 C-30.57625 91.5903125 -31.2775 91.930625 -32 92.28125 C-38.08242167 95.38857411 -42.58748989 98.49332511 -47.0234375 103.7109375 C-48.875 105.25 -48.875 105.25 -51.4296875 105.65625 C-55.33621443 105.00724233 -56.64938993 102.3411251 -58.875 99.25 C-59.205 98.59 -59.535 97.93 -59.875 97.25 C-63.10147542 101.09695146 -65.86186362 105.1640902 -68.60546875 109.359375 C-69.875 111.25 -69.875 111.25 -70.875 112.25 C-72.06738281 112.31445312 -73.25976562 112.37890625 -74.48828125 112.4453125 C-79.67603043 113.04802896 -82.37908665 115.62024857 -86.0625 119.125 C-87.37555183 120.31853424 -88.68936722 121.51122894 -90.00390625 122.703125 C-90.65375488 123.30189453 -91.30360352 123.90066406 -91.97314453 124.51757812 C-94.75101643 127.04797337 -97.61849539 129.46412499 -100.5 131.875 C-101.55497051 132.76398718 -102.60965822 133.65331005 -103.6640625 134.54296875 C-104.18645508 134.98302246 -104.70884766 135.42307617 -105.24707031 135.87646484 C-106.96674786 137.32741053 -108.68297654 138.78235324 -110.3984375 140.23828125 C-110.98028809 140.73183105 -111.56213867 141.22538086 -112.16162109 141.73388672 C-113.2665009 142.67125554 -114.37102044 143.60904926 -115.47509766 144.54736328 C-116.93736039 145.78675151 -118.40604417 147.01855197 -119.875 148.25 C-121.1125 149.42755859 -121.1125 149.42755859 -122.375 150.62890625 C-124.875 152.25 -124.875 152.25 -127.88671875 152.23046875 C-139.63615565 148.37542475 -146.5442967 134.80545341 -151.88671875 124.40234375 C-156.68930446 114.69496345 -161.9885779 103.35664464 -159.875 92.25 C-157.35161221 88.85770981 -153.71261253 87.86527942 -149.8671875 86.53515625 C-148.80806908 86.15703293 -148.80806908 86.15703293 -147.72755432 85.77127075 C-145.40443567 84.94374271 -143.07733318 84.12809163 -140.75 83.3125 C-139.13909377 82.74151662 -137.52850125 82.16964743 -135.91821289 81.59692383 C-133.42676163 80.71086764 -130.93511584 79.82541535 -128.44233704 78.94309998 C-122.69878198 76.90843761 -116.97183772 74.83208789 -111.25390625 72.7265625 C-110.49412476 72.44733444 -109.73434326 72.16810638 -108.95153809 71.88041687 C-106.01737105 70.80187847 -103.08329209 69.72318542 -100.15203857 68.63674927 C-98.14328514 67.89282803 -96.13245365 67.15480785 -94.12109375 66.41796875 C-92.98341553 65.99797607 -91.8457373 65.5779834 -90.67358398 65.14526367 C-87.875 64.25 -87.875 64.25 -84.875 64.25 C-85.390625 63.528125 -85.90625 62.80625 -86.4375 62.0625 C-87.875 59.25 -87.875 59.25 -87.84765625 56.78515625 C-86.42742857 53.08343833 -84.28487721 52.52568298 -80.75 50.875 C-76.42606183 48.72722327 -73.10387951 46.85199447 -69.875 43.25 C-67.16964286 40.27008929 -67.16964286 40.27008929 -64.125 40.0625 C-61.50483026 41.44536736 -60.347443 42.69259901 -58.875 45.25 C-58.875 45.91 -58.875 46.57 -58.875 47.25 C-55.41 44.775 -55.41 44.775 -51.875 42.25 C-53.39574746 38.64952764 -55.53744345 36.34993237 -58.3125 33.625 C-59.09496094 32.84898437 -59.87742187 32.07296875 -60.68359375 31.2734375 C-62.90287407 29.11809068 -62.90287407 29.11809068 -65.875 27.25 C-65.875 26.26 -65.875 25.27 -65.875 24.25 C-62.25330859 25.80095581 -59.74981981 28.01865052 -56.875 30.6875 C-53.96883478 33.37658885 -51.08984084 35.93561226 -47.875 38.25 C-40.98593526 32.70723898 -34.25316398 27.01401154 -27.5859375 21.20825195 C-21.40146257 15.82596388 -15.15319827 10.52267257 -8.875 5.25 C-8.34648437 4.78368164 -7.81796875 4.31736328 -7.2734375 3.83691406 C-3.18320066 0.27680006 -3.18320066 0.27680006 0 0 Z " fill="#850A0A" transform="translate(395.875,198.75)"/>
<path d="M0 0 C5.38327632 4.3496054 8.82421956 9.38356053 11.9296875 15.53515625 C12.30738281 16.28023437 12.68507813 17.0253125 13.07421875 17.79296875 C14.2758334 21.64471983 14.26952339 25.27216419 14.2421875 29.28515625 C14.23944824 30.08703369 14.23670898 30.88891113 14.23388672 31.71508789 C14.10718266 38.87969254 12.98881219 44.44646921 8.9296875 50.53515625 C9.48841553 50.70120361 10.04714355 50.86725098 10.62280273 51.03833008 C13.20471823 51.80658917 15.78595329 52.57711139 18.3671875 53.34765625 C19.24568359 53.60869141 20.12417969 53.86972656 21.02929688 54.13867188 C40.22616958 59.87648254 58.43120736 67.31162639 74.9296875 78.84765625 C75.52313965 79.25588623 76.1165918 79.66411621 76.72802734 80.0847168 C79.12269881 81.82133511 80.73369011 83.0215381 81.8046875 85.828125 C81.8459375 86.39144531 81.8871875 86.95476562 81.9296875 87.53515625 C81.33285156 87.14585937 80.73601562 86.7565625 80.12109375 86.35546875 C55.18032086 68.55033223 55.18032086 68.55033223 26.90551758 60.68676758 C24.10320508 61.8900341 23.20938105 63.55780526 21.56640625 66.109375 C20.93460449 67.07576904 20.30280273 68.04216309 19.65185547 69.0378418 C18.64469482 70.61432495 18.64469482 70.61432495 17.6171875 72.22265625 C16.17694162 74.43174653 14.73550934 76.64006373 13.29296875 78.84765625 C12.74533875 79.69060493 12.74533875 79.69060493 12.18664551 80.55058289 C8.05302737 86.90947156 3.75865876 93.15539938 -0.53955078 99.40356445 C-3.75213467 104.08854709 -6.90552447 108.80143073 -9.98046875 113.578125 C-10.61452637 114.55563721 -11.24858398 115.53314941 -11.90185547 116.5402832 C-13.11447969 118.4153684 -14.31586508 120.2977828 -15.50439453 122.18823242 C-16.04563965 123.02201416 -16.58688477 123.8557959 -17.14453125 124.71484375 C-17.61463623 125.45460449 -18.08474121 126.19436523 -18.5690918 126.95654297 C-19.06449463 127.47748535 -19.55989746 127.99842773 -20.0703125 128.53515625 C-21.3903125 128.53515625 -22.7103125 128.53515625 -24.0703125 128.53515625 C-25.5703125 126.7265625 -25.5703125 126.7265625 -27.0703125 124.09765625 C-30.08197376 119.08035675 -33.29141473 114.29489044 -36.6953125 109.53515625 C-41.55971806 102.70113285 -46.32736254 95.80793279 -51.04418945 88.87133789 C-53.99509444 84.54059311 -56.97729524 80.23529283 -60.00390625 75.95703125 C-60.65117676 75.04091064 -61.29844727 74.12479004 -61.96533203 73.1809082 C-63.22400768 71.40315305 -64.48658233 69.62815073 -65.75341797 67.85620117 C-66.31818848 67.05802979 -66.88295898 66.2598584 -67.46484375 65.4375 C-67.96862549 64.73101318 -68.47240723 64.02452637 -68.99145508 63.29663086 C-70.0703125 61.53515625 -70.0703125 61.53515625 -70.0703125 59.53515625 C-86.12591138 63.38726731 -104.05290232 71.24720304 -117.0703125 81.53515625 C-117.5653125 82.52515625 -117.5653125 82.52515625 -118.0703125 83.53515625 C-119.0603125 83.20515625 -120.0503125 82.87515625 -121.0703125 82.53515625 C-118.92678567 77.41170415 -115.07449403 75.64949728 -110.4453125 72.91015625 C-109.56302979 72.38671631 -108.68074707 71.86327637 -107.77172852 71.32397461 C-91.55776632 61.98026347 -74.29394124 55.61828061 -56.0703125 51.53515625 C-57.45354741 48.05257938 -57.45354741 48.05257938 -58.921875 44.60546875 C-62.12821672 36.5410335 -62.74183711 26.36432169 -59.8828125 18.09765625 C-53.70687883 5.95875214 -46.9386245 -1.2403792 -34.0703125 -6.46484375 C-22.06649328 -9.55365393 -10.0197618 -7.08945411 0 0 Z " fill="#881111" transform="translate(248.0703125,137.46484375)"/>
<path d="M0 0 C8.90216861 5.53418148 16.20701881 12.9290275 18.71875 23.26953125 C20.19910649 32.56446189 18.6721884 41.11049531 14.34375 49.45703125 C13.68375 50.11703125 13.02375 50.77703125 12.34375 51.45703125 C9.88283686 51.43866623 7.53823874 51.30395412 5.09375 51.08203125 C-2.03781285 50.54782595 -9.12975415 50.33563462 -16.28125 50.33203125 C-17.66618652 50.32550537 -17.66618652 50.32550537 -19.07910156 50.31884766 C-24.04446278 50.32880372 -28.73994065 50.68524968 -33.65625 51.45703125 C-35.30110066 51.51759276 -36.94797957 51.5448508 -38.59375 51.51953125 C-39.36589844 51.51050781 -40.13804687 51.50148437 -40.93359375 51.4921875 C-41.50207031 51.48058594 -42.07054687 51.46898437 -42.65625 51.45703125 C-48.63802556 42.05709823 -49.96961617 34.28373673 -48.65625 23.45703125 C-47.81102167 20.03657508 -46.58167932 17.39644405 -44.65625 14.45703125 C-44.15867188 13.68875 -43.66109375 12.92046875 -43.1484375 12.12890625 C-33.33103807 -1.66111528 -15.87003329 -7.4853657 0 0 Z " fill="#FDFCFC" transform="translate(239.65625,136.54296875)"/>
<path d="M0 0 C-0.22050021 8.59950805 -7.66040951 14.8956851 -13.421875 20.58984375 C-15 22 -15 22 -18 24 C-17.34 25.98 -16.68 27.96 -16 30 C-20.9582378 34.54953273 -25.95575555 39.01590051 -31.1875 43.25 C-37.65906773 48.48801144 -43.91875102 53.96075923 -50.19335938 59.43115234 C-53.11602373 61.96913088 -56.05713117 64.48550209 -59 67 C-67.95472684 63.88598599 -72.89151779 56.10703258 -77.84765625 48.41796875 C-79 46 -79 46 -78 43 C-76.15600586 41.68823242 -76.15600586 41.68823242 -73.71484375 40.35546875 C-72.80452393 39.85104248 -71.8942041 39.34661621 -70.95629883 38.8269043 C-69.96009521 38.28590088 -68.9638916 37.74489746 -67.9375 37.1875 C-65.81423372 36.01198754 -63.69186414 34.8348542 -61.5703125 33.65625 C-60.4762207 33.05039062 -59.38212891 32.44453125 -58.25488281 31.8203125 C-53.23326818 29.01194476 -48.27315073 26.10177809 -43.3125 23.1875 C-34.74621291 18.17812154 -26.17733542 13.1730772 -17.5796814 8.21768188 C-16.32493642 7.49310172 -15.07151992 6.76621583 -13.81948853 6.03695679 C-12.07459797 5.02114935 -10.32451657 4.01427429 -8.57421875 3.0078125 C-7.56963623 2.42660645 -6.56505371 1.84540039 -5.5300293 1.24658203 C-3 0 -3 0 0 0 Z " fill="#FDFBFB" transform="translate(329,280)"/>
<path d="M0 0 C1.09506492 3.28519475 1.09960608 5.73663415 1.0625 9.1875 C1.05347656 10.27417969 1.04445313 11.36085938 1.03515625 12.48046875 C1.02355469 13.31191406 1.01195312 14.14335937 1 15 C6.49995633 12.75001786 11.75562859 10.12882781 17.03515625 7.40234375 C25.17847107 3.55063094 25.17847107 3.55063094 30 5 C29.05253906 5.5261792 29.05253906 5.5261792 28.0859375 6.06298828 C16.35185582 12.58732368 4.64937468 19.15427554 -6.9375 25.9375 C-7.90131592 26.50114258 -8.86513184 27.06478516 -9.8581543 27.64550781 C-14.0840519 30.11842242 -18.3085638 32.59367343 -22.53027344 35.07373047 C-25.53733649 36.83944563 -28.54836544 38.5982377 -31.5617981 40.35305786 C-33.28149469 41.35690118 -34.99711304 42.36772056 -36.71264648 43.37866211 C-38.27221069 44.28563843 -38.27221069 44.28563843 -39.86328125 45.2109375 C-40.78407471 45.75024902 -41.70486816 46.28956055 -42.65356445 46.84521484 C-45 48 -45 48 -48 48 C-55.11472761 31.46233161 -55.11472761 31.46233161 -55.04296875 24.29296875 C-55.03676514 23.48754639 -55.03056152 22.68212402 -55.02416992 21.85229492 C-55.01619385 21.2410376 -55.00821777 20.62978027 -55 20 C-36.69050302 13.26597372 -18.36568842 6.57960032 0 0 Z " fill="#FCF9F9" transform="translate(295,272)"/>
<path d="M0 0 C0.15855469 0.72703125 0.31710937 1.4540625 0.48046875 2.203125 C2.05308452 8.98014324 4.1554493 15.15944933 7.01171875 21.50390625 C8 24 8 24 8 27 C-9.04628221 36.85581928 -26.10969362 46.68134071 -43.22802734 56.41162109 C-44.90835085 57.37446984 -46.58251022 58.34834035 -48.24462891 59.34228516 C-52.69976456 62 -52.69976456 62 -56 62 C-56.25088466 45.87170044 -56.25088466 45.87170044 -51.20703125 40.51953125 C-48.28030148 37.89715102 -45.12122572 35.606587 -41.90039062 33.36035156 C-38.92526137 31.2306727 -36.19857351 28.83375969 -33.4375 26.4375 C-32.36597799 25.52960142 -31.29306072 24.62334699 -30.21875 23.71875 C-27.50071984 21.42396541 -24.78674666 19.12443906 -22.07373047 16.82373047 C-19.92691291 15.00492562 -17.77639805 13.1905177 -15.62597656 11.37597656 C-13.9418234 9.95076827 -12.26382498 8.51851419 -10.5859375 7.0859375 C-9.49496334 6.16125575 -8.40382373 5.23676916 -7.3125 4.3125 C-6.33925781 3.48363281 -5.36601562 2.65476563 -4.36328125 1.80078125 C-2 0 -2 0 0 0 Z " fill="#FCFAFA" transform="translate(393,206)"/>
<path d="M0 0 C1.3210524 0.00068733 1.3210524 0.00068733 2.66879272 0.00138855 C4.51586265 0.00438807 6.36293056 0.0122045 8.20996094 0.0246582 C11.02287846 0.04296511 13.83546644 0.04516708 16.6484375 0.04492188 C18.45312782 0.04983664 20.25781593 0.05566478 22.0625 0.0625 C23.3111937 0.06416924 23.3111937 0.06416924 24.58511353 0.06587219 C29.28882052 0.10379711 33.75811434 0.45164337 38.3984375 1.23046875 C39.3984375 4.23046875 39.3984375 4.23046875 38.07836914 7.02685547 C37.41184326 8.14334473 36.74531738 9.25983398 36.05859375 10.41015625 C35.69881943 11.01876495 35.3390451 11.62737366 34.96836853 12.25442505 C33.80871235 14.21059903 32.63501013 16.15792065 31.4609375 18.10546875 C30.70416436 19.37836344 29.94829535 20.65179611 29.19335938 21.92578125 C24.84803927 29.23891473 20.41022695 36.49357014 15.92749023 43.72314453 C14.42329505 46.11085939 14.42329505 46.11085939 13.3984375 48.23046875 C12.7384375 48.23046875 12.0784375 48.23046875 11.3984375 48.23046875 C10.10839844 46.66290283 10.10839844 46.66290283 8.6328125 44.43847656 C8.07883789 43.61051575 7.52486328 42.78255493 6.95410156 41.92950439 C6.35823242 41.02335388 5.76236328 40.11720337 5.1484375 39.18359375 C4.53452148 38.26084656 3.92060547 37.33809937 3.28808594 36.38739014 C1.98700103 34.42902419 0.68924635 32.46844236 -0.60546875 30.50585938 C-2.58666423 27.5030494 -4.57751303 24.50683716 -6.5703125 21.51171875 C-7.83130299 19.61105766 -9.0917379 17.71002783 -10.3515625 15.80859375 C-10.94743164 14.91054016 -11.54330078 14.01248657 -12.15722656 13.08721924 C-12.71120117 12.24664978 -13.26517578 11.40608032 -13.8359375 10.54003906 C-14.32288086 9.80279602 -14.80982422 9.06555298 -15.31152344 8.30596924 C-16.54089132 6.32808057 -17.59790213 4.33043848 -18.6015625 2.23046875 C-12.31457909 0.57547632 -6.48868591 -0.05628171 0 0 Z " fill="#FDFCFC" transform="translate(213.6015625,189.76953125)"/>
<path d="M0 0 C3.94798612 1.31599537 5.09629698 3.78540013 7.25 7.125 C10.72862491 12.35475968 14.34247615 16.73886115 19 21 C16.11149869 23.35959058 13.47009809 24.73862874 9.95947266 25.97705078 C8.95808258 26.33397003 7.9566925 26.69088928 6.92495728 27.05862427 C5.848862 27.43373138 4.77276672 27.8088385 3.6640625 28.1953125 C2.55195404 28.58822479 1.43984558 28.98113708 0.29403687 29.38595581 C-2.05668604 30.21464215 -4.40863915 31.03984584 -6.76171875 31.86181641 C-10.35742959 33.11885748 -13.94845343 34.38862578 -17.5390625 35.66015625 C-19.82525238 36.4643053 -22.11170234 37.26771537 -24.3984375 38.0703125 C-25.47048431 38.44946808 -26.54253113 38.82862366 -27.64706421 39.2192688 C-28.65475861 39.56988373 -29.662453 39.92049866 -30.70068359 40.28173828 C-31.58130463 40.59023712 -32.46192566 40.89873596 -33.36923218 41.21658325 C-40.76039292 43.41759813 -40.76039292 43.41759813 -44.203125 42.2578125 C-44.87859375 41.88398438 -45.5540625 41.51015625 -46.25 41.125 C-51.11070231 38.72363088 -55.63057488 38.22419312 -61 38 C-61 37.01 -61 36.02 -61 35 C-60.27111572 34.59797363 -59.54223145 34.19594727 -58.79125977 33.78173828 C-41.73844497 24.40143968 -41.73844497 24.40143968 -24.875 14.6875 C-24.22394287 14.30311768 -23.57288574 13.91873535 -22.90209961 13.52270508 C-19.3515595 11.41764353 -15.82062968 9.28238901 -12.296875 7.1328125 C-11.51586426 6.66141846 -10.73485352 6.19002441 -9.93017578 5.7043457 C-8.42842011 4.79759829 -6.9316911 3.88245628 -5.44091797 2.95776367 C-3.6720951 1.89352972 -1.83958025 0.93662839 0 0 Z " fill="#FDFBFB" transform="translate(402,236)"/>
<path d="M0 0 C1.30744934 1.5402832 1.30744934 1.5402832 2.63208008 3.55078125 C3.13302689 4.30246582 3.63397369 5.05415039 4.15010071 5.82861328 C4.95171883 7.05813721 4.95171883 7.05813721 5.76953125 8.3125 C6.32815353 9.15538574 6.88677582 9.99827148 7.46232605 10.86669922 C9.25334778 13.57284758 11.03304787 16.28623334 12.8125 19 C13.99990633 20.79866893 15.18804904 22.59685197 16.37695312 24.39453125 C19.08457753 28.49101385 21.78715144 32.59070761 24.4750061 36.70019531 C25.53897593 38.30474127 26.62157256 39.89702352 27.71810913 41.47949219 C28.26834747 42.27774414 28.81858582 43.07599609 29.38549805 43.8984375 C29.88671677 44.61435059 30.38793549 45.33026367 30.90434265 46.06787109 C32 48 32 48 32 51 C33.32 51 34.64 51 36 51 C36.14248169 49.94643311 36.14248169 49.94643311 36.2878418 48.87158203 C37.13429664 45.45848574 38.55310007 43.05057157 40.39453125 40.0546875 C40.73840881 39.49095428 41.08228638 38.92722107 41.43658447 38.34640503 C42.55462025 36.51802836 43.68327823 34.69648524 44.8125 32.875 C45.58377456 31.61913591 46.3545236 30.36294893 47.12475586 29.10644531 C53.32403682 19.01312893 59.62081449 8.98053686 66 -1 C67.43791516 -0.85831863 68.8753237 -0.71148957 70.3125 -0.5625 C71.11300781 -0.48128906 71.91351563 -0.40007812 72.73828125 -0.31640625 C75 0 75 0 78 1 C76.71151404 4.51802271 75.1984932 7.39572761 73.0234375 10.44140625 C72.43433594 11.27349609 71.84523438 12.10558594 71.23828125 12.96289062 C70.62339844 13.82076172 70.00851562 14.67863281 69.375 15.5625 C64.83745361 21.93384782 60.40166057 28.35448938 56.07958984 34.87426758 C52.47041885 40.29904056 48.79399473 45.67808932 45.125 51.0625 C43.62738324 53.26156842 42.13009308 55.46085889 40.6328125 57.66015625 C39.98199707 58.61543213 39.33118164 59.57070801 38.66064453 60.55493164 C37.43185185 62.36415814 36.21316268 64.18025598 35 66 C34.34 66 33.68 66 33 66 C31.75415039 64.50976562 31.75415039 64.50976562 30.34765625 62.40625 C29.82453857 61.6318457 29.3014209 60.85744141 28.76245117 60.05957031 C28.20146729 59.21491211 27.6404834 58.37025391 27.0625 57.5 C25.87259566 55.73424032 24.68248867 53.96861719 23.4921875 52.203125 C22.60225098 50.87571289 22.60225098 50.87571289 21.69433594 49.52148438 C19.38254533 46.08111357 17.03880597 42.66343215 14.6875 39.25 C14.26017578 38.62746338 13.83285156 38.00492676 13.39257812 37.36352539 C10.5812259 33.2737787 7.74509425 29.20197409 4.8984375 25.13671875 C4.18212158 24.11223633 3.46580566 23.08775391 2.7277832 22.03222656 C1.314867 20.01281899 -0.10054725 17.99515625 -1.51879883 15.97949219 C-4.9330404 11.0977886 -8.15941626 6.23800735 -11 1 C-3.375 -1.125 -3.375 -1.125 0 0 Z " fill="#FBF8F8" transform="translate(192,194)"/>
<path d="M0 0 C5.94 0 11.88 0 18 0 C18.4125 2.2275 18.825 4.455 19.25 6.75 C20.43012989 12.92132143 22.10674757 18.71789574 24.328125 24.609375 C25 27 25 27 24 30 C22.00634766 31.07495117 22.00634766 31.07495117 19.4140625 32.04296875 C18.48335937 32.39423828 17.55265625 32.74550781 16.59375 33.10742188 C15.6140625 33.46384766 14.634375 33.82027344 13.625 34.1875 C12.16707031 34.73954102 12.16707031 34.73954102 10.6796875 35.30273438 C3.433601 38 3.433601 38 0 38 C-4.52124987 25.05523102 -3.85795081 13.02058398 0 0 Z " fill="#FCF9F9" transform="translate(91,264)"/>
<path d="M0 0 C1.19506836 1.76245117 1.19506836 1.76245117 2.33984375 4.04296875 C2.76330078 4.86990234 3.18675781 5.69683594 3.62304688 6.54882812 C4.05681641 7.41958984 4.49058594 8.29035156 4.9375 9.1875 C7.70761062 14.67373108 10.4533087 19.97209191 14 25 C13.30132812 25.61488281 12.60265625 26.22976563 11.8828125 26.86328125 C10.97273438 27.67152344 10.06265625 28.47976563 9.125 29.3125 C8.22007813 30.11300781 7.31515625 30.91351563 6.3828125 31.73828125 C3.86787689 33.95811057 3.86787689 33.95811057 2 37 C-9.14248885 33.14530116 -18.46101306 22.71048531 -24.0625 12.5625 C-25 10 -25 10 -24 7 C-22.00634766 5.90917969 -22.00634766 5.90917969 -19.4140625 4.921875 C-18.01800781 4.38820313 -18.01800781 4.38820313 -16.59375 3.84375 C-15.6140625 3.4828125 -14.634375 3.121875 -13.625 2.75 C-12.65304688 2.37359375 -11.68109375 1.9971875 -10.6796875 1.609375 C-3.38900162 -1.12966721 -3.38900162 -1.12966721 0 0 Z " fill="#FCFAFA" transform="translate(119,299)"/>
<path d="M0 0 C10.93556463 3.96438157 19.84472572 13.30987588 25 23.5625 C25.68132633 25.0349717 26.35376429 26.51179374 27 28 C10 37 10 37 2 37 C1.71801758 36.45061768 1.43603516 35.90123535 1.14550781 35.33520508 C-0.14723655 32.82462352 -1.44852687 30.31856695 -2.75 27.8125 C-3.41515625 26.51602539 -3.41515625 26.51602539 -4.09375 25.19335938 C-5.99971438 21.53558949 -7.77133143 18.27985745 -10.390625 15.07421875 C-10.92171875 14.38972656 -11.4528125 13.70523438 -12 13 C-10.86528532 9.59585597 -9.82774013 8.75723352 -7.125 6.5 C-4.64584653 4.41421775 -2.2560424 2.32698713 0 0 Z " fill="#FDFBFB" transform="translate(176,230)"/>
<path d="M0 0 C2.37123576 5.85274912 2.33369334 11.62720266 2.3125 17.875 C2.32861328 18.81730469 2.34472656 19.75960938 2.36132812 20.73046875 C2.36573794 27.10706622 1.31323377 32.05517232 -1 38 C-6.94 37.67 -12.88 37.34 -19 37 C-19.433125 34.380625 -19.86625 31.76125 -20.3125 29.0625 C-21.38161143 22.79264419 -22.83044726 16.99209804 -25 11 C-25 10.01 -25 9.02 -25 8 C-21.40223196 6.46369915 -17.79588889 4.94866722 -14.1875 3.4375 C-12.65125977 2.78104492 -12.65125977 2.78104492 -11.08398438 2.11132812 C-10.10107422 1.70205078 -9.11816406 1.29277344 -8.10546875 0.87109375 C-6.74651489 0.29766235 -6.74651489 0.29766235 -5.36010742 -0.28735352 C-3 -1 -3 -1 0 0 Z " fill="#FDFBFB" transform="translate(206,264)"/>
<path d="M0 0 C1.50548369 3.78951244 3.00345314 7.58195031 4.5 11.375 C4.92925781 12.45523437 5.35851562 13.53546875 5.80078125 14.6484375 C6.40986328 16.1953125 6.40986328 16.1953125 7.03125 17.7734375 C7.40830078 18.72653809 7.78535156 19.67963867 8.17382812 20.66162109 C9 23 9 23 9 25 C5.3993541 26.50855339 1.79394041 28.00535824 -1.8125 29.5 C-2.83666016 29.92925781 -3.86082031 30.35851562 -4.91601562 30.80078125 C-6.39038086 31.40986328 -6.39038086 31.40986328 -7.89453125 32.03125 C-9.25348511 32.59682617 -9.25348511 32.59682617 -10.63989258 33.17382812 C-13 34 -13 34 -16 34 C-16.82074855 31.02289362 -17.63172084 28.04366091 -18.4375 25.0625 C-18.78264648 23.81629883 -18.78264648 23.81629883 -19.13476562 22.54492188 C-20.61837273 17.01902295 -21.49949757 11.70112535 -22 6 C-17.78325609 4.58378646 -13.55693705 3.20600813 -9.3125 1.875 C-8.19488281 1.52179688 -7.07726562 1.16859375 -5.92578125 0.8046875 C-3 0 -3 0 0 0 Z " fill="#FCF9F9" transform="translate(136,257)"/>
<path d="M0 0 C4.29933296 1.51628261 5.73206631 4.30672102 8 8.125 C8.34740234 8.70741455 8.69480469 9.2898291 9.05273438 9.88989258 C16 21.65169149 16 21.65169149 16 25 C12.3993541 26.50855339 8.79394041 28.00535824 5.1875 29.5 C4.16333984 29.92925781 3.13917969 30.35851562 2.08398438 30.80078125 C0.60961914 31.40986328 0.60961914 31.40986328 -0.89453125 32.03125 C-1.80050049 32.40830078 -2.70646973 32.78535156 -3.63989258 33.17382812 C-6 34 -6 34 -9 34 C-11.97 26.41 -14.94 18.82 -18 11 C-14.87314963 7.87314963 -11.7936763 6.2432982 -7.875 4.375 C-3.65598391 2.5908224 -3.65598391 2.5908224 0 0 Z " fill="#FCF9F9" transform="translate(158,245)"/>
<path d="M0 0 C0.96142578 1.88598633 0.96142578 1.88598633 1.9453125 4.33203125 C2.29980469 5.21310547 2.65429688 6.09417969 3.01953125 7.00195312 C3.38433594 7.92943359 3.74914062 8.85691406 4.125 9.8125 C4.68380859 11.18631836 4.68380859 11.18631836 5.25390625 12.58789062 C5.60582031 13.47283203 5.95773438 14.35777344 6.3203125 15.26953125 C6.80395264 16.48539917 6.80395264 16.48539917 7.29736328 17.72583008 C8 20 8 20 8 24 C5.23456804 25.51012131 2.46183193 27.00630148 -0.3125 28.5 C-1.09818359 28.92925781 -1.88386719 29.35851562 -2.69335938 29.80078125 C-3.8293457 30.40986328 -3.8293457 30.40986328 -4.98828125 31.03125 C-5.68477783 31.40830078 -6.38127441 31.78535156 -7.09887695 32.17382812 C-9 33 -9 33 -12 33 C-13.63258839 30.85929478 -15.04168825 28.78808766 -16.4375 26.5 C-16.83638428 25.8608667 -17.23526855 25.2217334 -17.64624023 24.56323242 C-25 12.65506121 -25 12.65506121 -25 8 C-21.21324857 6.46671687 -17.41989189 4.95051081 -13.625 3.4375 C-12.54476562 2.99986328 -11.46453125 2.56222656 -10.3515625 2.11132812 C-9.3203125 1.70205078 -8.2890625 1.29277344 -7.2265625 0.87109375 C-6.27346191 0.48880615 -5.32036133 0.10651855 -4.33837891 -0.28735352 C-2 -1 -2 -1 0 0 Z " fill="#FCFAFA" transform="translate(148,287)"/>
<path d="M0 0 C4.36637037 7.66734637 5.32025457 18.35312649 5 27 C2.62592408 27.64939736 0.2508361 28.29460053 -2.125 28.9375 C-2.79015625 29.11990234 -3.4553125 29.30230469 -4.140625 29.49023438 C-8.07445227 30.55082506 -11.96973565 31.40362132 -16 32 C-17.53630085 28.40223196 -19.05133278 24.79588889 -20.5625 21.1875 C-21.21895508 19.65125977 -21.21895508 19.65125977 -21.88867188 18.08398438 C-22.29794922 17.10107422 -22.70722656 16.11816406 -23.12890625 15.10546875 C-23.51119385 14.19949951 -23.89348145 13.29353027 -24.28735352 12.36010742 C-25 10 -25 10 -24 7 C-22.11401367 5.90917969 -22.11401367 5.90917969 -19.66796875 4.921875 C-18.78689453 4.56609375 -17.90582031 4.2103125 -16.99804688 3.84375 C-16.07056641 3.4828125 -15.14308594 3.121875 -14.1875 2.75 C-12.81368164 2.18539063 -12.81368164 2.18539063 -11.41210938 1.609375 C-10.52716797 1.25875 -9.64222656 0.908125 -8.73046875 0.546875 C-7.91989014 0.22557617 -7.10931152 -0.09572266 -6.27416992 -0.42675781 C-3.73621316 -1.06649184 -2.41626869 -0.96336643 0 0 Z " fill="#FDFBFB" transform="translate(177,276)"/>
<path d="M0 0 C12.68661449 5.16862072 21.20652612 23.28513915 26.4375 35.1875 C28.38319652 40.33888153 28.79204305 45.53073225 29 51 C24.07582694 47.75137175 20.42264039 44.58426437 17.0625 39.6875 C16.64210449 39.08502441 16.22170898 38.48254883 15.78857422 37.86181641 C8.62013512 27.2973733 0 13.00985542 0 0 Z " fill="#FAF6F6" transform="translate(396,204)"/>
<path d="M0 0 C1.5056651 3.62267294 3.00356546 7.24850549 4.5 10.875 C4.92925781 11.90753906 5.35851562 12.94007813 5.80078125 14.00390625 C6.40986328 15.48310547 6.40986328 15.48310547 7.03125 16.9921875 C7.40830078 17.90339355 7.78535156 18.81459961 8.17382812 19.75341797 C9 22 9 22 9 24 C-0.16721701 24.88715003 -5.39346052 21.7404802 -12.41015625 16.04296875 C-14.31071106 14.39716202 -16.17210525 12.72577773 -18 11 C-16.56623011 6.69869034 -13.38384483 5.76374995 -9.5625 3.8125 C-8.86833984 3.44447266 -8.17417969 3.07644531 -7.45898438 2.69726562 C-2.28964228 0 -2.28964228 0 0 0 Z " fill="#FAF6F6" transform="translate(159,315)"/>
<path d="M0 0 C0.56447726 9.63792661 -0.57656913 19.4086726 -7 27 C-8.31098089 27.70961351 -9.6421302 28.38484813 -11 29 C-12.37218673 25.59029681 -13.71953606 22.17130714 -15.0625 18.75 C-15.45244141 17.78191406 -15.84238281 16.81382812 -16.24414062 15.81640625 C-16.60830078 14.88183594 -16.97246094 13.94726562 -17.34765625 12.984375 C-17.68804932 12.12553711 -18.02844238 11.26669922 -18.37915039 10.38183594 C-19.06203464 7.76200947 -19.08496397 6.47094657 -18 4 C-15.234375 2.734375 -15.234375 2.734375 -11.75 1.75 C-10.04070312 1.24726563 -10.04070312 1.24726563 -8.296875 0.734375 C-5.38283855 0.08527683 -2.96515208 -0.15606064 0 0 Z " fill="#FBF8F8" transform="translate(183,308)"/>
<path d="M0 0 C10.10489822 0.04299957 17.01094969 3.83251961 24.125 10.875 C25.09411748 11.90664119 26.05692193 12.94450203 27 14 C23.97467692 17.34608023 20.96428994 19.30159994 16.9375 21.3125 C15.37322266 22.11107422 15.37322266 22.11107422 13.77734375 22.92578125 C11 24 11 24 8 23 C6.92504883 21.09814453 6.92504883 21.09814453 5.95703125 18.6328125 C5.60576172 17.74722656 5.25449219 16.86164063 4.89257812 15.94921875 C4.53615234 15.01722656 4.17972656 14.08523437 3.8125 13.125 C3.44447266 12.20074219 3.07644531 11.27648437 2.69726562 10.32421875 C0 3.42842648 0 3.42842648 0 0 Z " fill="#FCF9F9" transform="translate(129,226)"/>
<path d="M0 0 C3.38250671 3.83141964 4.93570203 8.36249765 6.75 13.0625 C7.07871094 13.87783203 7.40742188 14.69316406 7.74609375 15.53320312 C8.05160156 16.31759766 8.35710937 17.10199219 8.671875 17.91015625 C8.9512793 18.62308838 9.23068359 19.33602051 9.51855469 20.07055664 C10 22 10 22 9 25 C6.234375 26.16796875 6.234375 26.16796875 2.75 27.1875 C1.61046875 27.53167969 0.4709375 27.87585938 -0.703125 28.23046875 C-3.62909513 28.91342623 -6.0176081 29.16257399 -9 29 C-9.44849187 19.33250863 -9.31603862 10.54702311 -2.8125 2.875 C-1.89067036 1.90158378 -0.95877156 0.93705182 0 0 Z " fill="#FCF9F9" transform="translate(123,228)"/>
<path d="M0 0 C3.3523805 1.46808536 5.65640966 3.37459524 8.3125 5.875 C12.01560622 9.24703381 15.54939316 11.7273497 20 14 C20 14.33 20 14.66 20 15 C9.39029322 15.5349432 1.10867435 14.48897235 -9 11 C-8.46324097 7.14896699 -6.88399077 5.68202413 -3.9375 3.25 C-3.20402344 2.63640625 -2.47054687 2.0228125 -1.71484375 1.390625 C-1.14894531 0.93171875 -0.58304688 0.4728125 0 0 Z " fill="#F7EFEF" transform="translate(135,328)"/>
<path d="M0 0 C1.36824364 2.73648727 0.38321293 4.2160275 -0.47949219 7.01220703 C-1.33683806 10.28636749 -1.44608258 13.56788863 -1.625 16.9375 C-1.74875 19.268125 -1.8725 21.59875 -2 24 C-7.28 24 -12.56 24 -18 24 C-13.66685478 14.21547854 -7.52515593 7.47396439 0 0 Z " fill="#F9F4F4" transform="translate(111,235)"/>
<path d="M0 0 C2.12493141 -0.02693575 4.24995912 -0.04636628 6.375 -0.0625 C7.55835938 -0.07410156 8.74171875 -0.08570313 9.9609375 -0.09765625 C13 0 13 0 15 1 C11.55865333 10.30802338 5.46745965 18.80405885 -3 24 C-2.86722656 23.44054687 -2.73445312 22.88109375 -2.59765625 22.3046875 C-0.96815187 14.90649974 -0.41363558 7.55429188 0 0 Z " fill="#F9F3F3" transform="translate(188,306)"/>
<path d="M0 0 C19.76200873 -0.61899563 19.76200873 -0.61899563 29 4 C27.55218207 7.44428265 25.72305391 9.36130962 22.875 11.75 C21.78832031 12.67039063 21.78832031 12.67039063 20.6796875 13.609375 C20.12539062 14.06828125 19.57109375 14.5271875 19 15 C18.01 14.13375 17.02 13.2675 16 12.375 C12.13513441 9.05889828 8.09938569 6.01748596 4 3 C2.66582891 2.00111798 1.33226913 1.00141737 0 0 Z " fill="#FAF5F5" transform="translate(142,223)"/>
<path d="M0 0 C0.66 0.33 1.32 0.66 2 1 C0.8482811 4.45515671 0.4809934 4.57098404 -2.60546875 6.12109375 C-3.34216797 6.49943359 -4.07886719 6.87777344 -4.83789062 7.26757812 C-5.61326172 7.65365234 -6.38863281 8.03972656 -7.1875 8.4375 C-16.30494612 12.35640757 -16.30494612 12.35640757 -23 19 C-23.99 18.67 -24.98 18.34 -26 18 C-24.55723087 14.3770031 -22.90649526 13.00598909 -19.5703125 11.0546875 C-18.69246094 10.53519531 -17.81460938 10.01570312 -16.91015625 9.48046875 C-15.99105469 8.95066406 -15.07195312 8.42085937 -14.125 7.875 C-13.21363281 7.33746094 -12.30226562 6.79992187 -11.36328125 6.24609375 C-8.91896076 4.8109949 -6.47286056 3.38533659 -4 2 C-3.28440918 1.59410645 -2.56881836 1.18821289 -1.83154297 0.77001953 C-0.9249292 0.38885986 -0.9249292 0.38885986 0 0 Z " fill="#8C1919" transform="translate(153,202)"/>
<path d="M0 0 C0.66 0.33 1.32 0.66 2 1 C1 4 1 4 -1.06640625 5.16796875 C-1.89011719 5.50441406 -2.71382812 5.84085938 -3.5625 6.1875 C-4.38878906 6.53167969 -5.21507812 6.87585938 -6.06640625 7.23046875 C-6.70449219 7.48441406 -7.34257812 7.73835937 -8 8 C-8 6.68 -8 5.36 -8 4 C-6.71349294 3.30289269 -5.42059335 2.61757124 -4.125 1.9375 C-3.40570313 1.55464844 -2.68640625 1.17179688 -1.9453125 0.77734375 C-1.30335938 0.52082031 -0.66140625 0.26429688 0 0 Z " fill="#902020" transform="translate(153,202)"/>
<path d="M0 0 C-0.33 0.99 -0.66 1.98 -1 3 C-3.97 3 -6.94 3 -10 3 C-9 1 -9 1 -7.25 0.375 C-4.79549443 -0.03408426 -2.4840589 -0.06900164 0 0 Z " fill="#840808" transform="translate(211,187)"/>
<path d="M0 0 C-1 3 -1 3 -2.875 4.25 C-5 5 -5 5 -8 4 C-3.375 0 -3.375 0 0 0 Z " fill="#870E0E" transform="translate(161,200)"/>
<path d="M0 0 C1.9375 0.375 1.9375 0.375 4 1 C4.33 1.66 4.66 2.32 5 3 C2.69 3.33 0.38 3.66 -2 4 C-1.34 2.68 -0.68 1.36 0 0 Z " fill="#932626" transform="translate(184,191)"/>
</svg>
