<svg id="svg" version="1.1" xmlns="http://www.w3.org/2000/svg" xmlns:xlink="http://www.w3.org/1999/xlink" width="400" height="400" viewBox="0, 0, 400,400"><g id="svgg"><path id="path0" d="M0.000 200.000 L 0.000 400.000 200.000 400.000 L 400.000 400.000 400.000 200.000 L 400.000 0.000 200.000 0.000 L 0.000 0.000 0.000 200.000 M186.303 104.621 C 187.239 104.766,188.105 105.045,188.226 105.242 C 188.348 105.439,188.808 105.600,189.249 105.600 C 194.976 105.600,206.012 116.457,208.359 124.400 C 208.652 125.390,209.075 126.594,209.300 127.075 C 210.952 130.612,209.456 142.704,206.719 147.941 C 205.100 151.037,205.698 152.000,209.236 152.000 C 209.850 152.000,210.464 152.180,210.600 152.400 C 210.736 152.620,211.456 152.800,212.200 152.800 C 212.944 152.800,213.664 152.980,213.800 153.200 C 213.936 153.420,214.478 153.600,215.005 153.600 C 215.531 153.600,216.376 153.761,216.881 153.958 C 217.387 154.155,218.610 154.541,219.600 154.816 C 222.478 155.615,226.515 156.871,227.600 157.306 C 229.210 157.951,230.111 158.289,231.600 158.802 C 234.565 159.824,244.468 164.607,246.672 166.081 C 247.592 166.697,248.453 167.200,248.585 167.200 C 250.532 167.200,272.316 184.074,277.153 189.329 L 278.106 190.365 280.953 187.987 C 283.680 185.710,286.267 183.524,299.400 172.400 C 315.876 158.444,314.864 159.214,316.400 159.466 C 320.477 160.133,328.047 167.479,331.998 174.600 C 332.486 175.480,333.034 176.384,333.216 176.609 C 333.896 177.449,339.509 188.346,340.423 190.600 C 344.289 200.132,344.173 208.081,340.157 208.721 C 339.741 208.787,339.040 208.994,338.600 209.182 C 338.160 209.369,336.720 209.914,335.400 210.393 C 334.080 210.872,332.687 211.430,332.305 211.632 C 331.923 211.834,331.284 212.000,330.885 212.000 C 330.486 212.000,329.989 212.149,329.780 212.330 C 329.571 212.512,328.590 212.905,327.600 213.202 C 326.610 213.500,325.620 213.859,325.400 214.000 C 325.180 214.141,324.190 214.500,323.200 214.798 C 322.210 215.095,321.229 215.488,321.020 215.670 C 320.811 215.851,320.262 216.000,319.800 216.000 C 319.338 216.000,318.789 216.149,318.580 216.330 C 318.371 216.512,317.390 216.905,316.400 217.202 C 315.410 217.500,314.420 217.859,314.200 218.000 C 313.980 218.141,312.990 218.500,312.000 218.798 C 311.010 219.095,310.029 219.488,309.820 219.670 C 309.611 219.851,309.062 220.000,308.600 220.000 C 308.138 220.000,307.589 220.149,307.380 220.330 C 307.171 220.512,306.190 220.905,305.200 221.202 C 304.210 221.500,303.220 221.859,303.000 222.000 C 302.780 222.141,301.790 222.500,300.800 222.798 C 299.810 223.095,298.829 223.488,298.620 223.670 C 298.411 223.851,297.837 224.000,297.344 224.000 C 296.851 224.000,296.358 224.144,296.249 224.321 C 296.140 224.497,295.139 224.890,294.025 225.193 C 291.815 225.795,291.687 226.050,292.639 227.957 C 293.988 230.663,293.150 231.774,287.766 234.417 C 284.173 236.180,283.276 236.832,281.140 239.236 C 276.941 243.961,275.039 244.543,272.497 241.882 C 271.118 240.437,269.600 237.873,269.600 236.988 C 269.600 235.555,267.134 237.358,266.133 239.523 C 263.438 245.354,260.057 248.862,257.200 248.790 C 255.990 248.759,254.820 248.749,254.600 248.768 C 254.201 248.801,252.567 250.142,241.403 259.600 C 238.157 262.350,233.474 266.310,230.996 268.400 C 219.741 277.895,217.201 280.075,216.984 280.425 C 215.246 283.238,206.804 276.299,200.038 266.494 C 198.758 264.639,193.321 254.170,192.303 251.600 C 192.085 251.050,191.748 250.287,191.553 249.905 C 191.359 249.523,191.200 248.936,191.200 248.600 C 191.200 248.264,191.038 247.677,190.839 247.295 C 190.640 246.913,190.295 245.880,190.071 245.000 C 189.847 244.120,189.465 242.644,189.222 241.720 C 187.684 235.872,189.165 230.400,192.285 230.400 C 192.574 230.400,193.123 230.241,193.505 230.047 C 194.678 229.450,196.126 228.876,197.800 228.345 C 198.680 228.065,199.571 227.693,199.780 227.518 C 199.989 227.343,200.538 227.200,201.000 227.200 C 201.462 227.200,202.011 227.051,202.220 226.870 C 202.429 226.688,203.410 226.295,204.400 225.998 C 205.390 225.700,206.380 225.341,206.600 225.200 C 206.820 225.059,207.810 224.700,208.800 224.402 C 209.790 224.105,210.771 223.712,210.980 223.530 C 211.189 223.349,211.738 223.200,212.200 223.200 C 212.662 223.200,213.211 223.051,213.420 222.870 C 213.629 222.688,214.610 222.295,215.600 221.998 C 216.590 221.700,217.580 221.341,217.800 221.200 C 218.020 221.059,219.010 220.700,220.000 220.402 C 220.990 220.105,221.971 219.712,222.180 219.530 C 222.389 219.349,222.938 219.200,223.400 219.200 C 223.862 219.200,224.411 219.057,224.620 218.882 C 224.829 218.707,225.720 218.335,226.600 218.055 C 228.274 217.524,229.722 216.950,230.895 216.353 C 231.277 216.159,231.941 216.000,232.371 216.000 C 232.801 216.000,233.264 215.820,233.400 215.600 C 233.536 215.380,233.999 215.200,234.429 215.200 C 234.859 215.200,235.523 215.041,235.905 214.847 C 237.078 214.250,238.526 213.676,240.200 213.145 C 241.080 212.865,241.971 212.493,242.180 212.318 C 242.389 212.143,242.963 212.000,243.456 212.000 C 243.949 212.000,244.442 211.856,244.551 211.679 C 244.660 211.503,245.661 211.110,246.775 210.807 C 248.636 210.300,249.322 209.570,248.446 209.029 C 245.483 207.197,246.437 202.860,250.200 201.060 C 251.520 200.429,252.913 199.752,253.295 199.556 C 253.677 199.360,254.264 199.200,254.599 199.200 C 254.934 199.200,256.987 197.498,259.160 195.419 C 264.535 190.275,266.339 190.203,269.039 195.028 C 269.524 195.892,270.125 196.600,270.376 196.600 C 271.024 196.600,276.000 192.388,276.000 191.840 C 276.000 191.311,269.632 185.005,266.374 182.308 C 263.573 179.988,257.234 175.200,256.966 175.200 C 256.855 175.200,255.430 174.300,253.800 173.200 C 252.170 172.100,250.721 171.200,250.580 171.200 C 250.439 171.200,249.815 170.838,249.193 170.395 C 247.388 169.110,239.537 165.015,235.300 163.149 C 234.365 162.737,232.835 162.059,231.900 161.641 C 230.965 161.224,229.570 160.666,228.800 160.401 C 228.030 160.136,227.040 159.776,226.600 159.600 C 226.160 159.424,225.170 159.064,224.400 158.800 C 223.630 158.536,222.624 158.143,222.165 157.927 C 220.872 157.319,219.075 157.686,218.594 158.657 C 218.360 159.129,217.913 159.823,217.600 160.200 C 217.287 160.577,216.844 161.201,216.616 161.587 C 216.387 161.973,214.130 165.309,211.600 169.000 C 209.070 172.691,206.813 176.027,206.584 176.413 C 206.356 176.799,205.913 177.423,205.600 177.800 C 205.287 178.177,204.844 178.801,204.616 179.186 C 204.294 179.729,197.175 190.220,192.800 196.601 C 189.475 201.450,183.271 210.875,182.788 211.812 C 181.963 213.412,179.799 213.722,179.207 212.325 C 178.673 211.068,177.535 209.293,174.000 204.202 C 172.350 201.825,170.730 199.485,170.400 199.002 C 170.070 198.518,168.090 195.637,166.000 192.600 C 163.910 189.563,161.930 186.682,161.600 186.198 C 161.270 185.715,159.650 183.375,158.000 181.000 C 156.350 178.625,154.730 176.285,154.400 175.802 C 154.070 175.318,152.090 172.443,150.000 169.414 C 147.910 166.384,145.228 162.487,144.040 160.753 C 142.567 158.604,141.627 157.600,141.087 157.600 C 140.362 157.600,134.235 159.524,132.100 160.421 C 131.605 160.630,130.795 160.958,130.300 161.151 C 127.655 162.183,117.378 167.172,114.800 168.676 C 113.810 169.254,112.614 169.932,112.143 170.183 C 110.076 171.286,104.012 175.432,104.006 175.747 C 104.003 175.937,104.495 175.973,105.100 175.825 C 123.718 171.287,142.169 176.194,155.156 189.138 C 158.219 192.191,162.400 197.209,162.400 197.832 C 162.400 197.955,162.902 198.808,163.516 199.728 C 164.559 201.292,166.122 204.375,166.797 206.200 C 166.960 206.640,167.282 207.450,167.513 208.000 C 167.744 208.550,168.050 209.450,168.194 210.000 C 168.337 210.550,168.632 211.630,168.850 212.400 C 171.097 220.337,171.272 236.196,169.140 238.580 C 168.953 238.789,168.797 239.329,168.794 239.780 C 168.787 240.692,167.901 243.433,167.474 243.859 C 167.323 244.010,167.200 244.434,167.200 244.803 C 167.200 249.103,151.880 268.800,148.535 268.800 C 148.385 268.800,147.948 269.085,147.563 269.433 C 146.690 270.223,145.042 271.154,141.200 273.024 C 137.344 274.901,137.381 274.887,132.800 276.329 C 127.735 277.924,119.237 278.673,113.592 278.023 C 108.062 277.386,103.851 276.300,98.400 274.104 C 86.732 269.404,75.152 257.844,70.749 246.500 C 70.557 246.005,70.238 245.195,70.040 244.700 C 69.693 243.831,69.409 242.981,68.471 240.000 C 67.824 237.945,66.899 232.267,66.614 228.600 C 66.388 225.688,66.559 223.751,67.875 214.297 C 67.990 213.471,68.245 212.695,68.442 212.574 C 68.639 212.452,68.800 211.911,68.800 211.371 C 68.800 210.831,69.008 209.987,69.262 209.495 C 70.207 207.667,70.400 207.199,70.413 206.705 C 70.426 206.179,72.003 202.934,73.560 200.231 C 77.785 192.896,85.897 184.790,93.009 180.795 C 93.859 180.318,95.357 179.268,96.337 178.463 C 97.317 177.659,99.151 176.280,100.412 175.400 C 106.966 170.828,108.786 169.600,109.010 169.600 C 109.145 169.600,110.041 169.060,111.000 168.400 C 111.959 167.740,112.859 167.200,113.000 167.200 C 113.141 167.200,114.008 166.697,114.928 166.081 C 116.863 164.787,124.799 160.905,128.200 159.589 C 128.640 159.419,129.853 158.902,130.896 158.440 C 131.938 157.978,132.976 157.600,133.201 157.600 C 133.426 157.600,133.923 157.441,134.305 157.247 C 136.858 155.948,150.787 152.000,152.816 152.000 C 154.443 152.000,154.438 151.023,152.795 147.791 C 151.918 146.065,151.200 144.272,151.200 143.806 C 151.200 143.341,151.045 142.789,150.856 142.580 C 149.162 140.706,149.250 132.267,151.043 124.644 C 153.007 116.291,162.900 107.198,172.402 105.010 C 174.051 104.630,175.580 104.254,175.800 104.174 C 176.365 103.969,184.257 104.305,186.303 104.621 M175.400 107.595 C 160.156 110.305,150.407 124.390,153.388 139.400 C 154.265 143.818,154.471 144.536,155.171 145.600 C 155.533 146.150,156.055 147.050,156.332 147.600 C 157.915 150.742,158.287 150.859,164.000 150.014 C 173.422 148.621,188.804 148.650,198.153 150.079 L 201.307 150.561 202.251 149.381 C 202.771 148.731,203.197 148.048,203.198 147.862 C 203.199 147.676,203.529 147.046,203.931 146.462 C 205.936 143.550,207.160 135.838,206.449 130.600 C 204.400 115.494,190.190 104.966,175.400 107.595 M170.600 151.826 C 163.136 152.532,159.743 152.966,159.420 153.257 C 159.211 153.446,158.446 153.600,157.720 153.600 C 156.994 153.600,156.400 153.684,156.400 153.788 C 156.400 154.249,158.109 157.193,158.626 157.622 C 158.942 157.884,159.200 158.287,159.200 158.517 C 159.200 158.748,159.499 159.267,159.864 159.671 C 160.230 160.075,160.725 160.737,160.964 161.142 C 163.148 164.835,180.304 189.980,180.647 189.989 C 181.055 189.999,183.200 187.135,183.200 186.581 C 183.200 186.451,183.740 185.559,184.400 184.600 C 185.060 183.641,185.600 182.741,185.600 182.600 C 185.600 182.459,186.140 181.559,186.800 180.600 C 187.460 179.641,188.000 178.741,188.000 178.600 C 188.000 178.459,188.540 177.559,189.200 176.600 C 189.860 175.641,190.400 174.741,190.400 174.600 C 190.400 174.459,190.940 173.559,191.600 172.600 C 192.260 171.641,192.800 170.691,192.800 170.490 C 192.800 170.289,193.160 169.798,193.600 169.400 C 194.040 169.002,194.400 168.511,194.400 168.310 C 194.400 168.109,194.940 167.159,195.600 166.200 C 196.260 165.241,196.800 164.341,196.800 164.200 C 196.800 164.059,197.340 163.159,198.000 162.200 C 198.660 161.241,199.200 160.336,199.200 160.190 C 199.200 160.043,199.539 159.446,199.954 158.862 C 201.726 156.366,202.871 153.911,202.457 153.497 C 201.346 152.386,177.757 151.149,170.600 151.826 M151.000 154.802 C 150.560 154.990,149.626 155.156,148.924 155.172 C 148.222 155.187,147.536 155.380,147.400 155.600 C 147.264 155.820,146.694 156.000,146.134 156.000 C 144.790 156.000,144.833 156.090,149.280 162.642 C 154.171 169.847,153.766 169.256,157.200 174.200 C 158.850 176.575,160.470 178.915,160.800 179.398 C 161.130 179.882,163.110 182.763,165.200 185.800 C 167.290 188.837,169.270 191.718,169.600 192.202 C 169.930 192.685,171.550 195.025,173.200 197.400 C 174.850 199.775,176.470 202.113,176.800 202.596 C 179.818 207.006,180.546 208.000,180.757 208.000 C 181.067 208.000,183.200 205.339,183.200 204.953 C 183.200 204.793,183.499 204.333,183.864 203.929 C 184.230 203.525,184.725 202.861,184.964 202.453 C 185.204 202.045,187.470 198.691,190.000 195.000 C 192.530 191.309,194.787 187.973,195.016 187.587 C 195.244 187.201,195.687 186.577,196.000 186.200 C 196.313 185.823,196.756 185.199,196.984 184.814 C 197.213 184.428,199.830 180.552,202.800 176.200 C 205.770 171.848,208.387 167.972,208.616 167.586 C 208.844 167.201,209.287 166.577,209.600 166.200 C 209.913 165.823,210.356 165.197,210.584 164.809 C 210.813 164.421,212.125 162.467,213.500 160.467 C 216.610 155.943,216.695 156.312,212.300 155.230 C 208.121 154.200,206.479 154.242,205.840 155.393 C 205.598 155.830,204.905 156.942,204.300 157.865 C 203.695 158.789,203.200 159.659,203.200 159.800 C 203.200 159.941,202.660 160.841,202.000 161.800 C 201.340 162.759,200.800 163.659,200.800 163.800 C 200.800 163.941,200.260 164.841,199.600 165.800 C 198.940 166.759,198.400 167.659,198.400 167.800 C 198.400 167.941,197.860 168.841,197.200 169.800 C 196.540 170.759,196.000 171.659,196.000 171.800 C 196.000 171.941,195.460 172.841,194.800 173.800 C 194.140 174.759,193.600 175.659,193.600 175.800 C 193.600 175.941,193.060 176.841,192.400 177.800 C 191.740 178.759,191.200 179.659,191.200 179.800 C 191.200 179.941,190.660 180.841,190.000 181.800 C 189.340 182.759,188.800 183.659,188.800 183.800 C 188.800 183.941,188.260 184.841,187.600 185.800 C 186.940 186.759,186.400 187.715,186.400 187.923 C 186.400 188.132,186.123 188.532,185.785 188.812 C 185.447 189.093,184.502 190.733,183.685 192.457 C 182.221 195.546,182.178 195.592,180.700 195.596 C 179.540 195.599,179.198 195.441,179.191 194.900 C 179.186 194.515,178.830 193.750,178.400 193.200 C 177.970 192.650,177.614 192.003,177.609 191.762 C 177.604 191.521,177.240 190.998,176.800 190.600 C 176.360 190.202,176.000 189.662,176.000 189.400 C 176.000 189.138,175.640 188.598,175.200 188.200 C 174.760 187.802,174.400 187.262,174.400 187.000 C 174.400 186.738,174.040 186.198,173.600 185.800 C 173.160 185.402,172.800 184.856,172.800 184.587 C 172.800 184.318,172.511 183.858,172.158 183.565 C 171.805 183.273,171.344 182.665,171.132 182.216 C 170.389 180.639,152.595 154.633,152.200 154.547 C 151.980 154.499,151.440 154.613,151.000 154.802 M317.378 166.052 C 317.532 167.621,317.803 169.196,317.980 169.552 C 318.157 169.909,318.516 170.920,318.777 171.800 C 319.039 172.680,319.445 173.850,319.680 174.400 C 319.915 174.950,320.241 175.760,320.404 176.200 C 320.691 176.970,323.868 183.404,325.871 187.267 C 326.403 188.294,327.100 189.351,327.419 189.616 C 327.739 189.881,328.000 190.318,328.000 190.587 C 328.000 190.856,328.360 191.402,328.800 191.800 C 329.240 192.198,329.600 192.687,329.600 192.885 C 329.600 194.250,338.375 203.600,339.656 203.600 C 340.724 203.600,339.275 196.327,337.227 191.400 C 336.162 188.839,332.471 181.550,331.519 180.128 C 330.904 179.208,330.400 178.341,330.400 178.200 C 330.400 177.863,328.379 174.883,325.784 171.394 C 323.605 168.465,318.309 163.200,317.541 163.200 C 317.230 163.200,317.181 164.060,317.378 166.052 M309.923 167.723 C 308.039 169.305,304.383 172.400,301.798 174.600 C 291.652 183.238,280.550 192.642,274.991 197.310 L 271.288 200.420 271.259 203.811 C 271.233 206.955,271.038 208.158,269.918 212.057 C 269.025 215.170,270.919 215.164,275.600 212.039 C 276.150 211.672,277.140 211.114,277.800 210.800 C 278.460 210.486,279.450 209.928,280.000 209.561 C 280.550 209.194,281.675 208.513,282.500 208.047 C 283.325 207.581,284.630 206.840,285.400 206.400 C 286.170 205.960,287.430 205.240,288.200 204.800 C 288.970 204.360,290.230 203.640,291.000 203.200 C 291.770 202.760,293.030 202.040,293.800 201.600 C 294.570 201.160,295.830 200.440,296.600 200.000 C 297.370 199.560,298.630 198.840,299.400 198.400 C 300.170 197.960,301.430 197.240,302.200 196.800 C 302.970 196.360,304.275 195.619,305.100 195.153 C 305.925 194.687,307.050 194.006,307.600 193.639 C 308.150 193.272,309.140 192.714,309.800 192.400 C 310.460 192.086,311.450 191.528,312.000 191.161 C 312.550 190.794,313.675 190.113,314.500 189.647 C 315.325 189.181,316.675 188.411,317.500 187.935 C 318.325 187.459,319.495 186.816,320.100 186.505 C 321.480 185.798,321.531 186.136,319.357 181.624 C 318.344 179.521,317.354 177.395,317.157 176.900 C 316.961 176.405,316.638 175.595,316.440 175.100 C 316.056 174.138,315.568 172.657,314.892 170.400 C 314.662 169.630,314.356 168.149,314.213 167.109 C 313.852 164.481,313.768 164.493,309.923 167.723 M115.900 178.313 C 113.670 178.466,113.510 178.798,115.300 179.553 C 116.015 179.855,117.264 180.619,118.077 181.251 C 118.889 181.883,119.704 182.400,119.888 182.400 C 120.071 182.400,122.068 184.130,124.324 186.245 L 128.425 190.089 130.113 188.977 C 132.250 187.567,136.800 183.048,136.800 182.335 C 136.800 181.674,134.652 180.749,130.600 179.665 C 126.799 178.647,120.059 178.028,115.900 178.313 M103.200 181.605 C 103.200 182.048,103.359 182.723,103.553 183.105 C 103.927 183.840,104.676 185.599,105.254 187.100 C 105.695 188.246,106.276 189.700,106.854 191.100 C 107.103 191.705,107.439 192.560,107.600 193.000 C 108.037 194.194,108.847 196.108,109.247 196.895 C 109.441 197.277,109.606 197.817,109.613 198.095 C 109.643 199.289,110.756 200.156,111.695 199.718 C 116.600 197.429,120.081 195.649,121.472 194.719 C 122.392 194.103,123.301 193.600,123.492 193.600 C 127.660 193.600,118.219 185.099,110.600 181.992 C 106.957 180.507,103.200 180.310,103.200 181.605 M96.780 184.471 C 95.149 186.255,93.822 188.704,92.591 192.200 C 91.903 194.154,91.215 199.294,91.208 202.535 L 91.200 206.070 92.900 205.803 C 93.835 205.656,95.140 205.382,95.800 205.195 C 96.460 205.008,97.810 204.644,98.800 204.388 C 99.790 204.132,100.913 203.760,101.295 203.561 C 101.677 203.362,102.264 203.200,102.600 203.200 C 102.936 203.200,103.523 203.033,103.905 202.829 C 104.287 202.625,104.919 202.359,105.309 202.238 C 106.258 201.944,106.596 200.942,106.107 199.873 C 105.887 199.393,105.527 198.550,105.307 198.000 C 105.087 197.450,104.727 196.550,104.507 196.000 C 104.287 195.450,103.879 194.460,103.600 193.800 C 103.321 193.140,102.913 192.150,102.693 191.600 C 102.473 191.050,102.113 190.150,101.893 189.600 C 101.673 189.050,101.313 188.150,101.093 187.600 C 100.873 187.050,100.513 186.150,100.293 185.600 C 98.942 182.221,98.860 182.195,96.780 184.471 M137.800 187.355 C 136.040 189.186,133.804 191.339,132.831 192.140 L 131.062 193.595 132.331 195.174 C 133.029 196.042,133.600 196.916,133.600 197.115 C 133.600 197.313,133.960 197.802,134.400 198.200 C 134.840 198.598,135.200 199.093,135.200 199.300 C 135.200 199.507,135.539 200.154,135.953 200.738 C 137.655 203.138,142.400 212.209,142.400 213.064 C 142.400 214.001,144.284 213.864,146.575 212.759 C 147.441 212.342,148.305 212.000,148.494 212.000 C 148.684 212.000,149.584 211.640,150.494 211.200 C 151.405 210.760,152.298 210.400,152.479 210.400 C 152.661 210.400,153.572 210.055,154.504 209.634 C 155.437 209.212,156.920 208.635,157.800 208.352 C 158.680 208.069,159.571 207.693,159.780 207.518 C 159.989 207.343,160.462 207.200,160.831 207.200 C 162.341 207.200,162.462 206.199,161.234 203.865 C 157.167 196.132,150.197 188.828,143.088 184.847 C 141.095 183.731,141.443 183.566,137.800 187.355 M85.768 191.246 C 82.685 194.226,79.203 198.535,77.645 201.300 C 77.180 202.125,76.440 203.435,76.000 204.212 C 74.371 207.087,74.536 207.200,80.367 207.200 C 87.033 207.200,86.795 207.316,86.822 204.057 C 86.833 202.596,87.007 200.050,87.207 198.400 C 87.552 195.560,87.736 194.635,88.788 190.447 C 89.426 187.904,89.153 187.976,85.768 191.246 M321.200 189.594 C 320.650 190.028,320.052 190.386,319.872 190.391 C 319.692 190.396,318.792 190.901,317.872 191.512 C 316.952 192.124,315.660 192.883,315.000 193.200 C 314.340 193.517,313.080 194.237,312.200 194.800 C 311.320 195.363,310.060 196.082,309.400 196.398 C 308.740 196.713,307.750 197.272,307.200 197.639 C 306.650 198.006,305.525 198.687,304.700 199.153 C 303.875 199.619,302.570 200.360,301.800 200.800 C 301.030 201.240,299.770 201.960,299.000 202.400 C 298.230 202.840,296.970 203.560,296.200 204.000 C 295.430 204.440,294.125 205.181,293.300 205.647 C 292.475 206.113,291.350 206.794,290.800 207.161 C 290.250 207.528,289.260 208.087,288.600 208.402 C 287.940 208.718,286.680 209.437,285.800 210.000 C 284.920 210.563,283.660 211.283,283.000 211.600 C 282.340 211.917,281.080 212.638,280.200 213.203 C 279.320 213.769,277.780 214.639,276.778 215.138 C 271.703 217.665,271.766 218.651,277.038 219.221 C 278.997 219.432,281.230 219.772,282.000 219.976 C 284.716 220.694,285.404 220.919,285.800 221.215 C 287.987 222.854,290.495 223.618,291.000 222.800 C 291.136 222.580,291.651 222.400,292.144 222.400 C 292.637 222.400,293.211 222.251,293.420 222.070 C 293.629 221.888,294.610 221.495,295.600 221.198 C 296.590 220.900,297.580 220.541,297.800 220.400 C 298.020 220.259,299.010 219.900,300.000 219.602 C 300.990 219.305,301.971 218.912,302.180 218.730 C 302.389 218.549,302.938 218.400,303.400 218.400 C 303.862 218.400,304.411 218.257,304.620 218.082 C 304.829 217.907,305.720 217.535,306.600 217.255 C 308.274 216.724,309.722 216.150,310.895 215.553 C 311.277 215.359,311.941 215.200,312.371 215.200 C 312.801 215.200,313.264 215.020,313.400 214.800 C 313.536 214.580,313.999 214.400,314.429 214.400 C 314.859 214.400,315.523 214.241,315.905 214.047 C 317.078 213.450,318.526 212.876,320.200 212.345 C 321.080 212.065,321.971 211.693,322.180 211.518 C 322.389 211.343,322.938 211.200,323.400 211.200 C 323.862 211.200,324.411 211.051,324.620 210.870 C 324.829 210.688,325.810 210.295,326.800 209.998 C 327.790 209.700,328.780 209.341,329.000 209.200 C 329.220 209.059,330.210 208.700,331.200 208.402 C 332.190 208.105,333.171 207.712,333.380 207.530 C 333.589 207.349,334.129 207.194,334.580 207.187 C 337.230 207.146,336.978 206.262,333.242 202.486 C 330.263 199.476,325.999 193.766,323.757 189.786 C 323.154 188.715,322.388 188.658,321.200 189.594 M126.000 196.762 C 124.088 198.191,121.962 199.323,113.700 203.306 C 111.810 204.217,111.865 204.145,112.353 205.105 C 112.703 205.792,113.273 207.151,113.946 208.900 C 114.137 209.395,114.497 210.295,114.746 210.900 C 115.324 212.300,115.905 213.754,116.346 214.900 C 116.537 215.395,116.897 216.295,117.146 216.900 C 117.396 217.505,117.780 218.450,118.000 219.000 C 118.220 219.550,118.564 220.405,118.764 220.900 C 118.964 221.395,119.228 222.115,119.351 222.500 C 119.642 223.410,120.458 223.384,122.494 222.400 C 123.405 221.960,124.305 221.600,124.494 221.600 C 124.684 221.600,125.584 221.240,126.494 220.800 C 127.405 220.360,128.305 220.000,128.494 220.000 C 128.684 220.000,129.584 219.640,130.494 219.200 C 131.405 218.760,132.298 218.400,132.479 218.400 C 132.661 218.400,133.572 218.061,134.504 217.647 C 135.437 217.233,136.789 216.670,137.509 216.395 C 138.228 216.121,138.899 215.763,139.000 215.600 C 139.353 215.029,133.804 204.588,131.068 200.677 C 130.151 199.365,129.115 197.821,128.768 197.246 C 127.974 195.934,127.272 195.811,126.000 196.762 M107.000 206.000 C 106.864 206.220,106.401 206.400,105.971 206.400 C 105.541 206.400,104.877 206.562,104.495 206.759 C 103.282 207.385,96.046 209.397,93.600 209.788 C 91.194 210.173,91.169 210.233,91.816 214.213 C 92.558 218.775,93.072 221.408,93.589 223.300 C 96.156 232.678,96.393 233.061,98.861 231.829 C 99.555 231.483,100.284 231.200,100.481 231.200 C 100.678 231.200,101.584 230.840,102.494 230.400 C 103.405 229.960,104.305 229.600,104.494 229.600 C 104.684 229.600,105.584 229.240,106.494 228.800 C 107.405 228.360,108.274 228.000,108.426 228.000 C 108.578 228.000,109.399 227.696,110.251 227.324 C 111.103 226.952,112.610 226.355,113.600 225.997 C 115.637 225.262,115.942 224.567,115.029 222.739 C 114.683 222.045,114.400 221.316,114.400 221.119 C 114.400 220.922,114.040 220.016,113.600 219.106 C 113.160 218.195,112.800 217.295,112.800 217.106 C 112.800 216.916,112.440 216.016,112.000 215.106 C 111.560 214.195,111.200 213.302,111.200 213.121 C 111.200 212.939,110.861 212.028,110.447 211.096 C 110.033 210.163,109.463 208.770,109.180 208.000 C 108.361 205.769,107.583 205.056,107.000 206.000 M162.400 210.777 C 161.661 211.184,159.274 212.185,156.500 213.254 C 156.005 213.444,155.105 213.804,154.500 214.054 C 152.808 214.751,151.479 215.278,150.600 215.600 C 150.160 215.761,149.350 216.079,148.800 216.306 C 144.467 218.094,144.400 218.168,145.250 220.281 C 146.106 222.411,146.311 223.008,146.801 224.800 C 147.071 225.790,147.435 227.050,147.608 227.600 C 148.256 229.655,149.317 234.879,149.883 238.800 L 150.200 241.000 154.315 240.857 C 156.578 240.779,159.606 240.937,161.044 241.208 C 164.220 241.807,164.215 241.811,165.233 237.761 C 166.992 230.762,166.876 219.071,164.991 213.400 C 163.954 210.280,163.725 210.048,162.400 210.777 M73.364 211.109 C 70.759 212.847,70.045 233.635,72.407 239.000 C 72.600 239.440,72.815 240.158,72.884 240.595 C 73.035 241.556,74.162 241.838,75.453 241.239 C 75.974 240.998,76.805 240.644,77.300 240.454 C 77.795 240.263,78.740 239.879,79.400 239.600 C 80.718 239.043,82.116 238.479,83.500 237.946 C 83.995 237.756,84.850 237.420,85.400 237.200 C 85.950 236.980,86.805 236.638,87.300 236.440 C 87.795 236.243,88.830 235.849,89.600 235.566 C 90.370 235.282,91.382 234.809,91.848 234.513 L 92.696 233.976 91.543 230.488 C 89.387 223.969,88.523 220.478,87.547 214.351 L 87.061 211.301 81.230 211.334 C 78.024 211.352,75.040 211.244,74.600 211.093 C 74.160 210.942,73.604 210.949,73.364 211.109 M249.878 213.056 C 249.344 213.589,250.104 214.000,251.624 214.000 C 252.758 214.000,253.200 213.832,253.200 213.400 C 253.200 212.788,250.432 212.501,249.878 213.056 M234.249 218.721 C 234.140 218.897,233.128 219.293,232.000 219.600 C 230.872 219.907,229.860 220.303,229.751 220.479 C 229.642 220.656,229.149 220.800,228.656 220.800 C 228.163 220.800,227.589 220.949,227.380 221.130 C 227.171 221.312,226.190 221.705,225.200 222.002 C 224.210 222.300,223.220 222.659,223.000 222.800 C 222.780 222.941,221.790 223.300,220.800 223.598 C 219.810 223.895,218.829 224.288,218.620 224.470 C 218.411 224.651,217.914 224.800,217.515 224.800 C 217.116 224.800,216.477 224.966,216.095 225.168 C 215.713 225.370,214.320 225.925,213.000 226.400 C 211.680 226.875,210.287 227.430,209.905 227.632 C 209.523 227.834,208.884 228.000,208.485 228.000 C 208.086 228.000,207.589 228.149,207.380 228.330 C 207.171 228.512,206.190 228.905,205.200 229.202 C 204.210 229.500,203.220 229.859,203.000 230.000 C 202.780 230.141,201.790 230.500,200.800 230.798 C 199.810 231.095,198.829 231.488,198.620 231.670 C 198.411 231.851,197.856 232.000,197.387 232.000 C 196.917 232.000,196.411 232.122,196.262 232.271 C 196.113 232.421,195.138 232.837,194.095 233.196 C 192.212 233.844,192.199 233.861,192.064 235.824 C 191.853 238.886,193.171 245.241,194.816 249.100 C 195.027 249.595,195.361 250.405,195.558 250.900 C 197.780 256.485,197.980 256.649,200.700 255.127 C 204.078 253.238,205.073 252.658,206.000 252.039 C 206.550 251.672,207.540 251.113,208.200 250.798 C 208.860 250.482,210.120 249.763,211.000 249.200 C 211.880 248.637,213.140 247.917,213.800 247.600 C 214.460 247.283,215.720 246.563,216.600 246.000 C 217.480 245.437,218.740 244.718,219.400 244.402 C 220.060 244.087,221.050 243.528,221.600 243.161 C 222.150 242.794,223.275 242.113,224.100 241.647 C 224.925 241.181,226.230 240.440,227.000 240.000 C 227.770 239.560,229.030 238.840,229.800 238.400 C 230.570 237.960,231.830 237.240,232.600 236.800 C 233.370 236.360,234.630 235.640,235.400 235.200 C 236.170 234.760,237.430 234.040,238.200 233.600 C 238.970 233.160,240.275 232.419,241.100 231.953 C 241.925 231.487,243.050 230.806,243.600 230.439 C 244.150 230.072,245.140 229.514,245.800 229.200 C 246.460 228.886,247.450 228.328,248.000 227.961 C 248.550 227.594,249.675 226.913,250.500 226.447 C 251.325 225.981,252.630 225.240,253.400 224.800 C 254.170 224.360,255.475 223.623,256.300 223.162 C 258.668 221.840,258.730 221.600,256.704 221.600 C 255.683 221.600,254.736 221.780,254.600 222.000 C 254.464 222.220,254.001 222.400,253.571 222.400 C 253.141 222.400,252.477 222.559,252.095 222.753 C 251.713 222.948,250.950 223.282,250.400 223.497 C 249.434 223.873,247.691 224.733,244.081 226.615 C 243.135 227.107,242.055 227.758,241.681 228.060 C 240.271 229.197,238.366 230.043,237.695 229.830 C 236.155 229.341,235.341 224.361,236.105 220.100 C 236.398 218.464,235.034 217.451,234.249 218.721 M138.400 220.367 C 137.679 220.776,135.372 221.748,132.500 222.854 C 132.005 223.044,131.105 223.404,130.500 223.654 C 128.808 224.351,127.479 224.878,126.600 225.200 C 121.666 227.007,121.119 227.466,121.953 229.105 C 122.148 229.487,122.484 230.250,122.700 230.800 C 122.916 231.350,123.297 232.295,123.546 232.900 C 123.796 233.505,124.180 234.450,124.400 235.000 C 124.620 235.550,124.980 236.450,125.200 237.000 C 125.420 237.550,125.756 238.405,125.946 238.900 C 126.137 239.395,126.497 240.295,126.746 240.900 C 126.996 241.505,127.365 242.405,127.566 242.900 C 127.768 243.395,128.172 244.385,128.464 245.100 C 128.998 246.407,130.475 246.891,131.420 246.070 C 131.629 245.888,132.610 245.507,133.600 245.223 C 134.590 244.939,135.850 244.569,136.400 244.400 C 138.099 243.878,140.502 243.255,142.800 242.741 C 146.677 241.875,146.669 241.961,143.946 230.200 C 141.860 221.186,140.672 219.081,138.400 220.367 M261.600 223.891 C 261.270 224.016,260.280 224.592,259.400 225.172 C 258.520 225.751,257.260 226.483,256.600 226.800 C 255.940 227.117,254.680 227.837,253.800 228.400 C 252.920 228.963,251.660 229.682,251.000 229.998 C 250.340 230.313,249.350 230.872,248.800 231.239 C 248.250 231.606,247.125 232.287,246.300 232.753 C 245.475 233.219,244.170 233.960,243.400 234.400 C 242.630 234.840,241.370 235.560,240.600 236.000 C 239.830 236.440,238.570 237.160,237.800 237.600 C 237.030 238.040,235.770 238.760,235.000 239.200 C 234.230 239.640,232.970 240.360,232.200 240.800 C 231.430 241.240,230.125 241.981,229.300 242.447 C 228.475 242.913,227.350 243.594,226.800 243.961 C 226.250 244.328,225.260 244.887,224.600 245.202 C 223.940 245.518,222.680 246.237,221.800 246.800 C 220.920 247.363,219.660 248.082,219.000 248.398 C 218.340 248.713,217.350 249.272,216.800 249.639 C 216.250 250.006,215.125 250.687,214.300 251.153 C 213.475 251.619,212.170 252.360,211.400 252.800 C 210.630 253.240,209.370 253.960,208.600 254.400 C 207.830 254.840,206.570 255.560,205.800 256.000 C 205.030 256.440,203.795 257.143,203.055 257.562 C 199.464 259.598,199.453 259.622,201.100 262.135 C 201.705 263.058,202.380 264.102,202.600 264.455 C 206.425 270.596,212.910 277.200,215.115 277.200 C 215.581 277.200,220.300 273.285,240.190 256.400 C 243.429 253.650,246.917 250.714,247.940 249.876 C 250.955 247.405,251.019 247.230,249.399 245.895 C 247.394 244.242,247.603 243.760,251.856 240.250 C 255.356 237.360,259.824 232.496,260.995 230.299 C 261.259 229.804,261.832 228.770,262.269 228.000 C 263.350 226.094,263.651 224.744,263.134 224.121 C 262.670 223.562,262.525 223.540,261.600 223.891 M116.400 229.192 C 115.624 229.600,113.111 230.648,110.500 231.654 C 110.005 231.844,109.105 232.204,108.500 232.454 C 106.808 233.151,105.479 233.678,104.600 234.000 C 103.682 234.336,102.245 234.907,100.800 235.510 C 100.250 235.740,99.485 236.028,99.100 236.151 C 98.035 236.492,98.203 237.076,100.848 242.230 C 104.308 248.973,104.411 249.160,104.800 249.400 C 104.992 249.519,105.427 250.173,105.767 250.855 C 107.930 255.191,109.970 256.643,111.938 255.247 C 114.110 253.707,119.049 251.097,123.718 249.020 C 125.242 248.343,125.457 247.399,124.355 246.220 C 124.160 246.011,124.000 245.597,124.000 245.301 C 124.000 245.004,123.640 244.016,123.200 243.106 C 122.760 242.195,122.400 241.295,122.400 241.106 C 122.400 240.916,122.040 240.016,121.600 239.106 C 121.160 238.195,120.800 237.302,120.800 237.121 C 120.800 236.939,120.455 236.028,120.034 235.096 C 119.612 234.163,119.043 232.746,118.770 231.946 C 118.066 229.889,117.134 228.806,116.400 229.192 M92.400 238.777 C 91.661 239.184,89.274 240.185,86.500 241.254 C 86.005 241.444,85.105 241.804,84.500 242.054 C 82.808 242.751,81.479 243.278,80.600 243.600 C 80.160 243.761,79.350 244.082,78.800 244.313 C 78.250 244.544,77.215 244.972,76.500 245.264 C 74.911 245.913,74.902 246.152,76.356 248.917 C 79.052 254.042,88.400 264.800,90.157 264.800 C 90.443 264.800,90.975 265.131,91.341 265.535 C 91.707 265.940,92.951 266.765,94.105 267.368 L 96.204 268.466 101.136 263.599 L 106.067 258.731 104.534 256.506 C 103.690 255.282,102.820 253.996,102.600 253.650 C 102.380 253.303,101.558 252.025,100.774 250.809 C 99.990 249.594,98.223 246.305,96.847 243.500 C 94.333 238.376,93.922 237.940,92.400 238.777 M151.353 245.475 C 150.560 245.631,150.493 245.952,150.300 250.521 C 150.103 255.178,149.204 260.608,148.383 262.095 C 147.913 262.946,147.883 264.000,148.329 264.000 C 148.509 264.000,150.211 262.425,152.110 260.500 C 156.457 256.095,158.949 252.777,161.162 248.455 C 161.403 247.985,161.797 247.216,162.037 246.746 C 162.371 246.094,162.347 245.813,161.937 245.553 C 161.406 245.216,152.987 245.154,151.353 245.475 M142.400 246.886 C 141.630 247.109,139.740 247.646,138.200 248.079 C 136.660 248.513,135.087 249.032,134.705 249.234 C 134.323 249.435,133.732 249.600,133.391 249.600 C 133.051 249.600,132.339 249.884,131.810 250.230 C 130.851 250.859,130.835 251.117,131.636 253.100 C 131.836 253.595,132.180 254.450,132.400 255.000 C 132.620 255.550,132.980 256.450,133.200 257.000 C 133.420 257.550,133.780 258.450,134.000 259.000 C 134.220 259.550,134.580 260.450,134.800 261.000 C 135.020 261.550,135.380 262.450,135.600 263.000 C 136.579 265.447,136.916 266.245,137.247 266.895 C 137.441 267.277,137.600 267.840,137.600 268.146 C 137.600 269.472,138.627 269.592,140.037 268.430 C 143.530 265.551,146.400 256.475,146.400 248.310 C 146.400 246.179,145.705 245.931,142.400 246.886 M124.800 253.059 C 121.332 254.648,117.638 256.520,115.800 257.620 C 114.700 258.279,113.575 258.923,113.300 259.052 C 110.929 260.160,121.152 268.400,127.800 270.740 C 131.007 271.869,135.350 271.590,134.097 270.337 C 133.823 270.063,133.600 269.597,133.600 269.301 C 133.600 269.004,133.240 268.016,132.800 267.106 C 132.360 266.195,132.000 265.295,132.000 265.106 C 132.000 264.916,131.640 264.016,131.200 263.106 C 130.760 262.195,130.400 261.295,130.400 261.106 C 130.400 260.916,130.040 260.016,129.600 259.106 C 129.160 258.195,128.800 257.295,128.800 257.106 C 128.800 256.916,128.440 256.016,128.000 255.106 C 127.560 254.195,127.200 253.214,127.200 252.925 C 127.200 252.236,126.514 252.274,124.800 253.059 M104.142 266.166 C 99.793 270.368,99.742 270.622,103.069 271.539 C 104.131 271.832,105.270 272.176,105.600 272.305 C 109.190 273.702,122.800 274.647,122.800 273.500 C 122.800 273.166,122.485 272.787,122.100 272.658 C 119.957 271.936,114.967 268.201,111.775 264.929 C 108.641 261.717,108.766 261.697,104.142 266.166 " stroke="none" fill="#fcfcfc" fill-rule="evenodd"></path><path id="path1" d="M175.800 104.174 C 175.580 104.254,174.051 104.630,172.402 105.010 C 162.900 107.198,153.007 116.291,151.043 124.644 C 149.250 132.267,149.162 140.706,150.856 142.580 C 151.045 142.789,151.200 143.341,151.200 143.806 C 151.200 144.272,151.918 146.065,152.795 147.791 C 154.438 151.023,154.443 152.000,152.816 152.000 C 150.787 152.000,136.858 155.948,134.305 157.247 C 133.923 157.441,133.426 157.600,133.201 157.600 C 132.976 157.600,131.938 157.978,130.896 158.440 C 129.853 158.902,128.640 159.419,128.200 159.589 C 124.799 160.905,116.863 164.787,114.928 166.081 C 114.008 166.697,113.141 167.200,113.000 167.200 C 112.859 167.200,111.959 167.740,111.000 168.400 C 110.041 169.060,109.145 169.600,109.010 169.600 C 108.786 169.600,106.966 170.828,100.412 175.400 C 99.151 176.280,97.317 177.659,96.337 178.463 C 95.357 179.268,93.859 180.318,93.009 180.795 C 85.897 184.790,77.785 192.896,73.560 200.231 C 72.003 202.934,70.426 206.179,70.413 206.705 C 70.400 207.199,70.207 207.667,69.262 209.495 C 69.008 209.987,68.800 210.831,68.800 211.371 C 68.800 211.911,68.639 212.452,68.442 212.574 C 68.245 212.695,67.990 213.471,67.875 214.297 C 66.559 223.751,66.388 225.688,66.614 228.600 C 66.899 232.267,67.824 237.945,68.471 240.000 C 69.409 242.981,69.693 243.831,70.040 244.700 C 70.238 245.195,70.557 246.005,70.749 246.500 C 75.152 257.844,86.732 269.404,98.400 274.104 C 108.715 278.259,117.387 279.232,127.800 277.402 C 129.780 277.054,132.030 276.571,132.800 276.329 C 137.381 274.887,137.344 274.901,141.200 273.024 C 145.042 271.154,146.690 270.223,147.563 269.433 C 147.948 269.085,148.385 268.800,148.535 268.800 C 151.880 268.800,167.200 249.103,167.200 244.803 C 167.200 244.434,167.323 244.010,167.474 243.859 C 167.901 243.433,168.787 240.692,168.794 239.780 C 168.797 239.329,168.953 238.789,169.140 238.580 C 171.272 236.196,171.097 220.337,168.850 212.400 C 168.632 211.630,168.337 210.550,168.194 210.000 C 168.050 209.450,167.744 208.550,167.513 208.000 C 167.282 207.450,166.960 206.640,166.797 206.200 C 166.122 204.375,164.559 201.292,163.516 199.728 C 162.902 198.808,162.400 197.955,162.400 197.832 C 162.400 197.209,158.219 192.191,155.156 189.138 C 142.169 176.194,123.718 171.287,105.100 175.825 C 104.495 175.973,104.003 175.937,104.006 175.747 C 104.012 175.432,110.076 171.286,112.143 170.183 C 112.614 169.932,113.810 169.254,114.800 168.676 C 117.378 167.172,127.655 162.183,130.300 161.151 C 130.795 160.958,131.605 160.630,132.100 160.421 C 134.235 159.524,140.362 157.600,141.087 157.600 C 141.627 157.600,142.567 158.604,144.040 160.753 C 145.228 162.487,147.910 166.384,150.000 169.414 C 152.090 172.443,154.070 175.318,154.400 175.802 C 154.730 176.285,156.350 178.625,158.000 181.000 C 159.650 183.375,161.270 185.715,161.600 186.198 C 161.930 186.682,163.910 189.563,166.000 192.600 C 168.090 195.637,170.070 198.518,170.400 199.002 C 170.730 199.485,172.350 201.825,174.000 204.202 C 177.535 209.293,178.673 211.068,179.207 212.325 C 179.799 213.722,181.963 213.412,182.788 211.812 C 183.271 210.875,189.475 201.450,192.800 196.601 C 197.175 190.220,204.294 179.729,204.616 179.186 C 204.844 178.801,205.287 178.177,205.600 177.800 C 205.913 177.423,206.356 176.799,206.584 176.413 C 206.813 176.027,209.070 172.691,211.600 169.000 C 214.130 165.309,216.387 161.973,216.616 161.587 C 216.844 161.201,217.287 160.577,217.600 160.200 C 217.913 159.823,218.360 159.129,218.594 158.657 C 219.075 157.686,220.872 157.319,222.165 157.927 C 222.624 158.143,223.630 158.536,224.400 158.800 C 225.170 159.064,226.160 159.424,226.600 159.600 C 227.040 159.776,228.030 160.136,228.800 160.401 C 229.570 160.666,230.965 161.224,231.900 161.641 C 232.835 162.059,234.365 162.737,235.300 163.149 C 239.537 165.015,247.388 169.110,249.193 170.395 C 249.815 170.838,250.439 171.200,250.580 171.200 C 250.721 171.200,252.170 172.100,253.800 173.200 C 255.430 174.300,256.855 175.200,256.966 175.200 C 257.234 175.200,263.573 179.988,266.374 182.308 C 269.632 185.005,276.000 191.311,276.000 191.840 C 276.000 192.388,271.024 196.600,270.376 196.600 C 270.125 196.600,269.524 195.892,269.039 195.028 C 266.339 190.203,264.535 190.275,259.160 195.419 C 256.987 197.498,254.934 199.200,254.599 199.200 C 254.264 199.200,253.677 199.360,253.295 199.556 C 252.913 199.752,251.520 200.429,250.200 201.060 C 246.437 202.860,245.483 207.197,248.446 209.029 C 249.322 209.570,248.636 210.300,246.775 210.807 C 245.661 211.110,244.660 211.503,244.551 211.679 C 244.442 211.856,243.949 212.000,243.456 212.000 C 242.963 212.000,242.389 212.143,242.180 212.318 C 241.971 212.493,241.080 212.865,240.200 213.145 C 238.526 213.676,237.078 214.250,235.905 214.847 C 235.523 215.041,234.859 215.200,234.429 215.200 C 233.999 215.200,233.536 215.380,233.400 215.600 C 233.264 215.820,232.801 216.000,232.371 216.000 C 231.941 216.000,231.277 216.159,230.895 216.353 C 229.722 216.950,228.274 217.524,226.600 218.055 C 225.720 218.335,224.829 218.707,224.620 218.882 C 224.411 219.057,223.862 219.200,223.400 219.200 C 222.938 219.200,222.389 219.349,222.180 219.530 C 221.971 219.712,220.990 220.105,220.000 220.402 C 219.010 220.700,218.020 221.059,217.800 221.200 C 217.580 221.341,216.590 221.700,215.600 221.998 C 214.610 222.295,213.629 222.688,213.420 222.870 C 213.211 223.051,212.662 223.200,212.200 223.200 C 211.738 223.200,211.189 223.349,210.980 223.530 C 210.771 223.712,209.790 224.105,208.800 224.402 C 207.810 224.700,206.820 225.059,206.600 225.200 C 206.380 225.341,205.390 225.700,204.400 225.998 C 203.410 226.295,202.429 226.688,202.220 226.870 C 202.011 227.051,201.462 227.200,201.000 227.200 C 200.538 227.200,199.989 227.343,199.780 227.518 C 199.571 227.693,198.680 228.065,197.800 228.345 C 196.126 228.876,194.678 229.450,193.505 230.047 C 193.123 230.241,192.574 230.400,192.285 230.400 C 189.165 230.400,187.684 235.872,189.222 241.720 C 189.465 242.644,189.847 244.120,190.071 245.000 C 190.295 245.880,190.640 246.913,190.839 247.295 C 191.038 247.677,191.200 248.264,191.200 248.600 C 191.200 248.936,191.359 249.523,191.553 249.905 C 191.748 250.287,192.085 251.050,192.303 251.600 C 193.321 254.170,198.758 264.639,200.038 266.494 C 206.804 276.299,215.246 283.238,216.984 280.425 C 217.201 280.075,219.741 277.895,230.996 268.400 C 233.474 266.310,238.157 262.350,241.403 259.600 C 252.567 250.142,254.201 248.801,254.600 248.768 C 254.820 248.749,255.990 248.759,257.200 248.790 C 260.057 248.862,263.438 245.354,266.133 239.523 C 267.134 237.358,269.600 235.555,269.600 236.988 C 269.600 237.873,271.118 240.437,272.497 241.882 C 275.039 244.543,276.941 243.961,281.140 239.236 C 283.276 236.832,284.173 236.180,287.766 234.417 C 293.150 231.774,293.988 230.663,292.639 227.957 C 291.687 226.050,291.815 225.795,294.025 225.193 C 295.139 224.890,296.140 224.497,296.249 224.321 C 296.358 224.144,296.851 224.000,297.344 224.000 C 297.837 224.000,298.411 223.851,298.620 223.670 C 298.829 223.488,299.810 223.095,300.800 222.798 C 301.790 222.500,302.780 222.141,303.000 222.000 C 303.220 221.859,304.210 221.500,305.200 221.202 C 306.190 220.905,307.171 220.512,307.380 220.330 C 307.589 220.149,308.138 220.000,308.600 220.000 C 309.062 220.000,309.611 219.851,309.820 219.670 C 310.029 219.488,311.010 219.095,312.000 218.798 C 312.990 218.500,313.980 218.141,314.200 218.000 C 314.420 217.859,315.410 217.500,316.400 217.202 C 317.390 216.905,318.371 216.512,318.580 216.330 C 318.789 216.149,319.338 216.000,319.800 216.000 C 320.262 216.000,320.811 215.851,321.020 215.670 C 321.229 215.488,322.210 215.095,323.200 214.798 C 324.190 214.500,325.180 214.141,325.400 214.000 C 325.620 213.859,326.610 213.500,327.600 213.202 C 328.590 212.905,329.571 212.512,329.780 212.330 C 329.989 212.149,330.486 212.000,330.885 212.000 C 331.284 212.000,331.923 211.834,332.305 211.632 C 332.687 211.430,334.080 210.872,335.400 210.393 C 336.720 209.914,338.160 209.369,338.600 209.182 C 339.040 208.994,339.741 208.787,340.157 208.721 C 344.173 208.081,344.289 200.132,340.423 190.600 C 339.509 188.346,333.896 177.449,333.216 176.609 C 333.034 176.384,332.486 175.480,331.998 174.600 C 328.047 167.479,320.477 160.133,316.400 159.466 C 314.864 159.214,315.876 158.444,299.400 172.400 C 286.267 183.524,283.680 185.710,280.953 187.987 L 278.106 190.365 277.153 189.329 C 272.316 184.074,250.532 167.200,248.585 167.200 C 248.453 167.200,247.592 166.697,246.672 166.081 C 244.468 164.607,234.565 159.824,231.600 158.802 C 230.111 158.289,229.210 157.951,227.600 157.306 C 226.515 156.871,222.478 155.615,219.600 154.816 C 218.610 154.541,217.387 154.155,216.881 153.958 C 216.376 153.761,215.531 153.600,215.005 153.600 C 214.478 153.600,213.936 153.420,213.800 153.200 C 213.664 152.980,212.944 152.800,212.200 152.800 C 211.456 152.800,210.736 152.620,210.600 152.400 C 210.464 152.180,209.850 152.000,209.236 152.000 C 205.698 152.000,205.100 151.037,206.719 147.941 C 209.456 142.704,210.952 130.612,209.300 127.075 C 209.075 126.594,208.652 125.390,208.359 124.400 C 206.012 116.457,194.976 105.600,189.249 105.600 C 188.808 105.600,188.348 105.439,188.226 105.242 C 187.832 104.605,177.143 103.686,175.800 104.174 M187.200 108.225 C 199.885 112.063,207.571 123.309,206.594 136.600 C 206.335 140.121,205.069 144.808,203.931 146.462 C 203.529 147.046,203.199 147.676,203.198 147.862 C 203.197 148.048,202.771 148.731,202.251 149.381 L 201.307 150.561 198.153 150.079 C 188.804 148.650,173.422 148.621,164.000 150.014 C 158.287 150.859,157.915 150.742,156.332 147.600 C 156.055 147.050,155.533 146.150,155.171 145.600 C 154.471 144.536,154.265 143.818,153.388 139.400 C 149.494 119.793,168.257 102.494,187.200 108.225 M198.320 152.537 C 203.430 153.283,203.560 153.784,199.954 158.862 C 199.539 159.446,199.200 160.043,199.200 160.190 C 199.200 160.336,198.660 161.241,198.000 162.200 C 197.340 163.159,196.800 164.059,196.800 164.200 C 196.800 164.341,196.260 165.241,195.600 166.200 C 194.940 167.159,194.400 168.109,194.400 168.310 C 194.400 168.511,194.040 169.002,193.600 169.400 C 193.160 169.798,192.800 170.289,192.800 170.490 C 192.800 170.691,192.260 171.641,191.600 172.600 C 190.940 173.559,190.400 174.459,190.400 174.600 C 190.400 174.741,189.860 175.641,189.200 176.600 C 188.540 177.559,188.000 178.459,188.000 178.600 C 188.000 178.741,187.460 179.641,186.800 180.600 C 186.140 181.559,185.600 182.459,185.600 182.600 C 185.600 182.741,185.060 183.641,184.400 184.600 C 183.740 185.559,183.200 186.451,183.200 186.581 C 183.200 187.135,181.055 189.999,180.647 189.989 C 180.304 189.980,163.148 164.835,160.964 161.142 C 160.725 160.737,160.230 160.075,159.864 159.671 C 159.499 159.267,159.200 158.748,159.200 158.517 C 159.200 158.287,158.942 157.884,158.626 157.622 C 158.109 157.193,156.400 154.249,156.400 153.788 C 156.400 153.684,156.994 153.600,157.720 153.600 C 158.446 153.600,159.211 153.446,159.420 153.257 C 159.743 152.966,163.136 152.532,170.600 151.826 C 174.126 151.492,194.793 152.023,198.320 152.537 M161.674 168.017 C 166.664 175.378,170.921 181.767,171.132 182.216 C 171.344 182.665,171.805 183.273,172.158 183.565 C 172.511 183.858,172.800 184.318,172.800 184.587 C 172.800 184.856,173.160 185.402,173.600 185.800 C 174.040 186.198,174.400 186.738,174.400 187.000 C 174.400 187.262,174.760 187.802,175.200 188.200 C 175.640 188.598,176.000 189.138,176.000 189.400 C 176.000 189.662,176.360 190.202,176.800 190.600 C 177.240 190.998,177.604 191.521,177.609 191.762 C 177.614 192.003,177.970 192.650,178.400 193.200 C 178.830 193.750,179.186 194.515,179.191 194.900 C 179.198 195.441,179.540 195.599,180.700 195.596 C 182.178 195.592,182.221 195.546,183.685 192.457 C 184.502 190.733,185.447 189.093,185.785 188.812 C 186.123 188.532,186.400 188.132,186.400 187.923 C 186.400 187.715,186.940 186.759,187.600 185.800 C 188.260 184.841,188.800 183.941,188.800 183.800 C 188.800 183.659,189.340 182.759,190.000 181.800 C 190.660 180.841,191.200 179.941,191.200 179.800 C 191.200 179.659,191.740 178.759,192.400 177.800 C 193.060 176.841,193.600 175.941,193.600 175.800 C 193.600 175.659,194.140 174.759,194.800 173.800 C 195.460 172.841,196.000 171.941,196.000 171.800 C 196.000 171.659,196.540 170.759,197.200 169.800 C 197.860 168.841,198.400 167.941,198.400 167.800 C 198.400 167.659,198.940 166.759,199.600 165.800 C 200.260 164.841,200.800 163.941,200.800 163.800 C 200.800 163.659,201.340 162.759,202.000 161.800 C 202.660 160.841,203.200 159.941,203.200 159.800 C 203.200 159.659,203.695 158.789,204.300 157.865 C 204.905 156.942,205.598 155.830,205.840 155.393 C 206.479 154.242,208.121 154.200,212.300 155.230 C 216.695 156.312,216.610 155.943,213.500 160.467 C 212.125 162.467,210.813 164.421,210.584 164.809 C 210.356 165.197,209.913 165.823,209.600 166.200 C 209.287 166.577,208.844 167.201,208.616 167.586 C 208.387 167.972,205.770 171.848,202.800 176.200 C 199.830 180.552,197.213 184.428,196.984 184.814 C 196.756 185.199,196.313 185.823,196.000 186.200 C 195.687 186.577,195.244 187.201,195.016 187.587 C 194.787 187.973,192.530 191.309,190.000 195.000 C 187.470 198.691,185.204 202.045,184.964 202.453 C 184.725 202.861,184.230 203.525,183.864 203.929 C 183.499 204.333,183.200 204.793,183.200 204.953 C 183.200 205.339,181.067 208.000,180.757 208.000 C 180.546 208.000,179.818 207.006,176.800 202.596 C 176.470 202.113,174.850 199.775,173.200 197.400 C 171.550 195.025,169.930 192.685,169.600 192.202 C 169.270 191.718,167.290 188.837,165.200 185.800 C 163.110 182.763,161.130 179.882,160.800 179.398 C 160.470 178.915,158.850 176.575,157.200 174.200 C 153.766 169.256,154.171 169.847,149.280 162.642 C 144.833 156.090,144.790 156.000,146.134 156.000 C 146.694 156.000,147.264 155.820,147.400 155.600 C 147.536 155.380,148.222 155.187,148.924 155.172 C 149.626 155.156,150.560 154.990,151.000 154.802 C 152.332 154.232,152.305 154.199,161.674 168.017 M320.841 165.894 C 323.511 168.413,326.143 171.643,329.135 176.072 C 329.831 177.102,330.400 178.059,330.400 178.200 C 330.400 178.341,330.904 179.208,331.519 180.128 C 332.471 181.550,336.162 188.839,337.227 191.400 C 339.275 196.327,340.724 203.600,339.656 203.600 C 338.375 203.600,329.600 194.250,329.600 192.885 C 329.600 192.687,329.240 192.198,328.800 191.800 C 328.360 191.402,328.000 190.856,328.000 190.587 C 328.000 190.318,327.739 189.881,327.419 189.616 C 327.100 189.351,326.403 188.294,325.871 187.267 C 323.868 183.404,320.691 176.970,320.404 176.200 C 320.241 175.760,319.915 174.950,319.680 174.400 C 319.445 173.850,319.039 172.680,318.777 171.800 C 318.516 170.920,318.157 169.909,317.980 169.552 C 317.408 168.400,317.048 163.200,317.541 163.200 C 317.785 163.200,319.270 164.412,320.841 165.894 M314.213 167.109 C 314.356 168.149,314.662 169.630,314.892 170.400 C 315.568 172.657,316.056 174.138,316.440 175.100 C 316.638 175.595,316.961 176.405,317.157 176.900 C 317.354 177.395,318.344 179.521,319.357 181.624 C 321.531 186.136,321.480 185.798,320.100 186.505 C 319.495 186.816,318.325 187.459,317.500 187.935 C 316.675 188.411,315.325 189.181,314.500 189.647 C 313.675 190.113,312.550 190.794,312.000 191.161 C 311.450 191.528,310.460 192.086,309.800 192.400 C 309.140 192.714,308.150 193.272,307.600 193.639 C 307.050 194.006,305.925 194.687,305.100 195.153 C 304.275 195.619,302.970 196.360,302.200 196.800 C 301.430 197.240,300.170 197.960,299.400 198.400 C 298.630 198.840,297.370 199.560,296.600 200.000 C 295.830 200.440,294.570 201.160,293.800 201.600 C 293.030 202.040,291.770 202.760,291.000 203.200 C 290.230 203.640,288.970 204.360,288.200 204.800 C 287.430 205.240,286.170 205.960,285.400 206.400 C 284.630 206.840,283.325 207.581,282.500 208.047 C 281.675 208.513,280.550 209.194,280.000 209.561 C 279.450 209.928,278.460 210.486,277.800 210.800 C 277.140 211.114,276.150 211.672,275.600 212.039 C 270.919 215.164,269.025 215.170,269.918 212.057 C 271.038 208.158,271.233 206.955,271.259 203.811 L 271.288 200.420 274.991 197.310 C 280.550 192.642,291.652 183.238,301.798 174.600 C 314.793 163.538,313.805 164.134,314.213 167.109 M126.400 178.838 C 131.646 179.642,136.800 181.374,136.800 182.335 C 136.800 183.048,132.250 187.567,130.113 188.977 L 128.425 190.089 124.324 186.245 C 122.068 184.130,120.071 182.400,119.888 182.400 C 119.704 182.400,118.889 181.883,118.077 181.251 C 117.264 180.619,116.015 179.855,115.300 179.553 C 114.585 179.251,114.000 178.879,114.000 178.724 C 114.000 178.052,121.731 178.123,126.400 178.838 M108.440 181.233 C 116.508 183.802,128.433 193.600,123.492 193.600 C 123.301 193.600,122.392 194.103,121.472 194.719 C 120.081 195.649,116.600 197.429,111.695 199.718 C 110.756 200.156,109.643 199.289,109.613 198.095 C 109.606 197.817,109.441 197.277,109.247 196.895 C 108.847 196.108,108.037 194.194,107.600 193.000 C 107.439 192.560,107.103 191.705,106.854 191.100 C 106.276 189.700,105.695 188.246,105.254 187.100 C 104.676 185.599,103.927 183.840,103.553 183.105 C 102.428 180.894,104.674 180.034,108.440 181.233 M99.479 183.700 C 99.707 184.195,100.073 185.050,100.293 185.600 C 100.513 186.150,100.873 187.050,101.093 187.600 C 101.313 188.150,101.673 189.050,101.893 189.600 C 102.113 190.150,102.473 191.050,102.693 191.600 C 102.913 192.150,103.321 193.140,103.600 193.800 C 103.879 194.460,104.287 195.450,104.507 196.000 C 104.727 196.550,105.087 197.450,105.307 198.000 C 105.527 198.550,105.887 199.393,106.107 199.873 C 106.596 200.942,106.258 201.944,105.309 202.238 C 104.919 202.359,104.287 202.625,103.905 202.829 C 103.523 203.033,102.936 203.200,102.600 203.200 C 102.264 203.200,101.677 203.362,101.295 203.561 C 100.913 203.760,99.790 204.132,98.800 204.388 C 97.810 204.644,96.460 205.008,95.800 205.195 C 95.140 205.382,93.835 205.656,92.900 205.803 L 91.200 206.070 91.208 202.535 C 91.215 199.294,91.903 194.154,92.591 192.200 C 94.846 185.796,98.416 181.390,99.479 183.700 M143.088 184.847 C 152.890 190.336,166.276 207.200,160.831 207.200 C 160.462 207.200,159.989 207.343,159.780 207.518 C 159.571 207.693,158.680 208.069,157.800 208.352 C 156.920 208.635,155.437 209.212,154.504 209.634 C 153.572 210.055,152.661 210.400,152.479 210.400 C 152.298 210.400,151.405 210.760,150.494 211.200 C 149.584 211.640,148.684 212.000,148.494 212.000 C 148.305 212.000,147.441 212.342,146.575 212.759 C 144.284 213.864,142.400 214.001,142.400 213.064 C 142.400 212.209,137.655 203.138,135.953 200.738 C 135.539 200.154,135.200 199.507,135.200 199.300 C 135.200 199.093,134.840 198.598,134.400 198.200 C 133.960 197.802,133.600 197.313,133.600 197.115 C 133.600 196.916,133.029 196.042,132.331 195.174 L 131.062 193.595 132.831 192.140 C 133.804 191.339,136.040 189.186,137.800 187.355 C 141.443 183.566,141.095 183.731,143.088 184.847 M88.788 190.447 C 87.736 194.635,87.552 195.560,87.207 198.400 C 87.007 200.050,86.833 202.596,86.822 204.057 C 86.795 207.316,87.033 207.200,80.367 207.200 C 74.536 207.200,74.371 207.087,76.000 204.212 C 76.440 203.435,77.180 202.125,77.645 201.300 C 79.817 197.444,88.362 187.829,89.027 188.493 C 89.137 188.604,89.030 189.483,88.788 190.447 M323.757 189.786 C 325.999 193.766,330.263 199.476,333.242 202.486 C 336.978 206.262,337.230 207.146,334.580 207.187 C 334.129 207.194,333.589 207.349,333.380 207.530 C 333.171 207.712,332.190 208.105,331.200 208.402 C 330.210 208.700,329.220 209.059,329.000 209.200 C 328.780 209.341,327.790 209.700,326.800 209.998 C 325.810 210.295,324.829 210.688,324.620 210.870 C 324.411 211.051,323.862 211.200,323.400 211.200 C 322.938 211.200,322.389 211.343,322.180 211.518 C 321.971 211.693,321.080 212.065,320.200 212.345 C 318.526 212.876,317.078 213.450,315.905 214.047 C 315.523 214.241,314.859 214.400,314.429 214.400 C 313.999 214.400,313.536 214.580,313.400 214.800 C 313.264 215.020,312.801 215.200,312.371 215.200 C 311.941 215.200,311.277 215.359,310.895 215.553 C 309.722 216.150,308.274 216.724,306.600 217.255 C 305.720 217.535,304.829 217.907,304.620 218.082 C 304.411 218.257,303.862 218.400,303.400 218.400 C 302.938 218.400,302.389 218.549,302.180 218.730 C 301.971 218.912,300.990 219.305,300.000 219.602 C 299.010 219.900,298.020 220.259,297.800 220.400 C 297.580 220.541,296.590 220.900,295.600 221.198 C 294.610 221.495,293.629 221.888,293.420 222.070 C 293.211 222.251,292.637 222.400,292.144 222.400 C 291.651 222.400,291.136 222.580,291.000 222.800 C 290.495 223.618,287.987 222.854,285.800 221.215 C 285.404 220.919,284.716 220.694,282.000 219.976 C 281.230 219.772,278.997 219.432,277.038 219.221 C 271.766 218.651,271.703 217.665,276.778 215.138 C 277.780 214.639,279.320 213.769,280.200 213.203 C 281.080 212.638,282.340 211.917,283.000 211.600 C 283.660 211.283,284.920 210.563,285.800 210.000 C 286.680 209.437,287.940 208.718,288.600 208.402 C 289.260 208.087,290.250 207.528,290.800 207.161 C 291.350 206.794,292.475 206.113,293.300 205.647 C 294.125 205.181,295.430 204.440,296.200 204.000 C 296.970 203.560,298.230 202.840,299.000 202.400 C 299.770 201.960,301.030 201.240,301.800 200.800 C 302.570 200.360,303.875 199.619,304.700 199.153 C 305.525 198.687,306.650 198.006,307.200 197.639 C 307.750 197.272,308.740 196.713,309.400 196.398 C 310.060 196.082,311.320 195.363,312.200 194.800 C 313.080 194.237,314.340 193.517,315.000 193.200 C 315.660 192.883,316.952 192.124,317.872 191.512 C 318.792 190.901,319.692 190.396,319.872 190.391 C 320.052 190.386,320.650 190.028,321.200 189.594 C 322.388 188.658,323.154 188.715,323.757 189.786 M128.768 197.246 C 129.115 197.821,130.151 199.365,131.068 200.677 C 133.804 204.588,139.353 215.029,139.000 215.600 C 138.899 215.763,138.228 216.121,137.509 216.395 C 136.789 216.670,135.437 217.233,134.504 217.647 C 133.572 218.061,132.661 218.400,132.479 218.400 C 132.298 218.400,131.405 218.760,130.494 219.200 C 129.584 219.640,128.684 220.000,128.494 220.000 C 128.305 220.000,127.405 220.360,126.494 220.800 C 125.584 221.240,124.684 221.600,124.494 221.600 C 124.305 221.600,123.405 221.960,122.494 222.400 C 120.458 223.384,119.642 223.410,119.351 222.500 C 119.228 222.115,118.964 221.395,118.764 220.900 C 118.564 220.405,118.220 219.550,118.000 219.000 C 117.780 218.450,117.396 217.505,117.146 216.900 C 116.897 216.295,116.537 215.395,116.346 214.900 C 115.905 213.754,115.324 212.300,114.746 210.900 C 114.497 210.295,114.137 209.395,113.946 208.900 C 113.273 207.151,112.703 205.792,112.353 205.105 C 111.865 204.145,111.810 204.217,113.700 203.306 C 121.962 199.323,124.088 198.191,126.000 196.762 C 127.272 195.811,127.974 195.934,128.768 197.246 M108.284 206.100 C 108.494 206.375,108.897 207.230,109.180 208.000 C 109.463 208.770,110.033 210.163,110.447 211.096 C 110.861 212.028,111.200 212.939,111.200 213.121 C 111.200 213.302,111.560 214.195,112.000 215.106 C 112.440 216.016,112.800 216.916,112.800 217.106 C 112.800 217.295,113.160 218.195,113.600 219.106 C 114.040 220.016,114.400 220.922,114.400 221.119 C 114.400 221.316,114.683 222.045,115.029 222.739 C 115.942 224.567,115.637 225.262,113.600 225.997 C 112.610 226.355,111.103 226.952,110.251 227.324 C 109.399 227.696,108.578 228.000,108.426 228.000 C 108.274 228.000,107.405 228.360,106.494 228.800 C 105.584 229.240,104.684 229.600,104.494 229.600 C 104.305 229.600,103.405 229.960,102.494 230.400 C 101.584 230.840,100.678 231.200,100.481 231.200 C 100.284 231.200,99.555 231.483,98.861 231.829 C 96.925 232.795,96.380 232.466,95.507 229.800 C 94.283 226.063,93.316 222.505,92.789 219.800 C 90.969 210.464,90.990 210.205,93.600 209.788 C 96.046 209.397,103.282 207.385,104.495 206.759 C 104.877 206.562,105.541 206.400,105.971 206.400 C 106.401 206.400,106.864 206.220,107.000 206.000 C 107.335 205.459,107.823 205.497,108.284 206.100 M164.314 211.500 C 165.536 214.770,165.944 216.845,166.365 221.916 C 166.911 228.499,165.561 239.799,164.049 241.311 C 163.795 241.565,162.743 241.529,161.044 241.208 C 159.606 240.937,156.578 240.779,154.315 240.857 L 150.200 241.000 149.883 238.800 C 149.317 234.879,148.256 229.655,147.608 227.600 C 147.435 227.050,147.071 225.790,146.801 224.800 C 146.311 223.008,146.106 222.411,145.250 220.281 C 144.400 218.168,144.467 218.094,148.800 216.306 C 149.350 216.079,150.160 215.761,150.600 215.600 C 151.479 215.278,152.808 214.751,154.500 214.054 C 155.105 213.804,156.005 213.444,156.500 213.254 C 159.274 212.185,161.661 211.184,162.400 210.777 C 163.446 210.202,163.892 210.370,164.314 211.500 M81.230 211.334 L 87.061 211.301 87.547 214.351 C 88.523 220.478,89.387 223.969,91.543 230.488 L 92.696 233.976 91.848 234.513 C 91.382 234.809,90.370 235.282,89.600 235.566 C 88.830 235.849,87.795 236.243,87.300 236.440 C 86.805 236.638,85.950 236.980,85.400 237.200 C 84.850 237.420,83.995 237.756,83.500 237.946 C 82.116 238.479,80.718 239.043,79.400 239.600 C 78.740 239.879,77.795 240.263,77.300 240.454 C 76.805 240.644,75.974 240.998,75.453 241.239 C 74.162 241.838,73.035 241.556,72.884 240.595 C 72.815 240.158,72.600 239.440,72.407 239.000 C 71.414 236.745,70.715 229.569,70.926 223.800 C 71.234 215.363,72.661 210.427,74.600 211.093 C 75.040 211.244,78.024 211.352,81.230 211.334 M253.200 213.400 C 253.200 214.062,250.225 214.288,249.834 213.656 C 249.475 213.075,250.064 212.800,251.667 212.800 C 252.763 212.800,253.200 212.971,253.200 213.400 M236.105 220.100 C 235.341 224.361,236.155 229.341,237.695 229.830 C 238.366 230.043,240.271 229.197,241.681 228.060 C 242.055 227.758,243.135 227.107,244.081 226.615 C 247.691 224.733,249.434 223.873,250.400 223.497 C 250.950 223.282,251.713 222.948,252.095 222.753 C 252.477 222.559,253.141 222.400,253.571 222.400 C 254.001 222.400,254.464 222.220,254.600 222.000 C 254.736 221.780,255.683 221.600,256.704 221.600 C 258.730 221.600,258.668 221.840,256.300 223.162 C 255.475 223.623,254.170 224.360,253.400 224.800 C 252.630 225.240,251.325 225.981,250.500 226.447 C 249.675 226.913,248.550 227.594,248.000 227.961 C 247.450 228.328,246.460 228.886,245.800 229.200 C 245.140 229.514,244.150 230.072,243.600 230.439 C 243.050 230.806,241.925 231.487,241.100 231.953 C 240.275 232.419,238.970 233.160,238.200 233.600 C 237.430 234.040,236.170 234.760,235.400 235.200 C 234.630 235.640,233.370 236.360,232.600 236.800 C 231.830 237.240,230.570 237.960,229.800 238.400 C 229.030 238.840,227.770 239.560,227.000 240.000 C 226.230 240.440,224.925 241.181,224.100 241.647 C 223.275 242.113,222.150 242.794,221.600 243.161 C 221.050 243.528,220.060 244.087,219.400 244.402 C 218.740 244.718,217.480 245.437,216.600 246.000 C 215.720 246.563,214.460 247.283,213.800 247.600 C 213.140 247.917,211.880 248.637,211.000 249.200 C 210.120 249.763,208.860 250.482,208.200 250.798 C 207.540 251.113,206.550 251.672,206.000 252.039 C 205.073 252.658,204.078 253.238,200.700 255.127 C 197.980 256.649,197.780 256.485,195.558 250.900 C 195.361 250.405,195.027 249.595,194.816 249.100 C 193.171 245.241,191.853 238.886,192.064 235.824 C 192.199 233.861,192.212 233.844,194.095 233.196 C 195.138 232.837,196.113 232.421,196.262 232.271 C 196.411 232.122,196.917 232.000,197.387 232.000 C 197.856 232.000,198.411 231.851,198.620 231.670 C 198.829 231.488,199.810 231.095,200.800 230.798 C 201.790 230.500,202.780 230.141,203.000 230.000 C 203.220 229.859,204.210 229.500,205.200 229.202 C 206.190 228.905,207.171 228.512,207.380 228.330 C 207.589 228.149,208.086 228.000,208.485 228.000 C 208.884 228.000,209.523 227.834,209.905 227.632 C 210.287 227.430,211.680 226.875,213.000 226.400 C 214.320 225.925,215.713 225.370,216.095 225.168 C 216.477 224.966,217.116 224.800,217.515 224.800 C 217.914 224.800,218.411 224.651,218.620 224.470 C 218.829 224.288,219.810 223.895,220.800 223.598 C 221.790 223.300,222.780 222.941,223.000 222.800 C 223.220 222.659,224.210 222.300,225.200 222.002 C 226.190 221.705,227.171 221.312,227.380 221.130 C 227.589 220.949,228.163 220.800,228.656 220.800 C 229.149 220.800,229.642 220.656,229.751 220.479 C 229.860 220.303,230.872 219.907,232.000 219.600 C 233.128 219.293,234.140 218.897,234.249 218.721 C 235.034 217.451,236.398 218.464,236.105 220.100 M142.001 223.200 C 142.562 224.850,143.437 228.000,143.946 230.200 C 146.669 241.961,146.677 241.875,142.800 242.741 C 140.502 243.255,138.099 243.878,136.400 244.400 C 135.850 244.569,134.590 244.939,133.600 245.223 C 132.610 245.507,131.629 245.888,131.420 246.070 C 130.475 246.891,128.998 246.407,128.464 245.100 C 128.172 244.385,127.768 243.395,127.566 242.900 C 127.365 242.405,126.996 241.505,126.746 240.900 C 126.497 240.295,126.137 239.395,125.946 238.900 C 125.756 238.405,125.420 237.550,125.200 237.000 C 124.980 236.450,124.620 235.550,124.400 235.000 C 124.180 234.450,123.796 233.505,123.546 232.900 C 123.297 232.295,122.916 231.350,122.700 230.800 C 122.484 230.250,122.148 229.487,121.953 229.105 C 121.119 227.466,121.666 227.007,126.600 225.200 C 127.479 224.878,128.808 224.351,130.500 223.654 C 131.105 223.404,132.005 223.044,132.500 222.854 C 135.372 221.748,137.679 220.776,138.400 220.367 C 140.087 219.412,140.944 220.086,142.001 223.200 M263.134 224.121 C 263.651 224.744,263.350 226.094,262.269 228.000 C 261.832 228.770,261.259 229.804,260.995 230.299 C 259.824 232.496,255.356 237.360,251.856 240.250 C 247.603 243.760,247.394 244.242,249.399 245.895 C 251.019 247.230,250.955 247.405,247.940 249.876 C 246.917 250.714,243.429 253.650,240.190 256.400 C 220.300 273.285,215.581 277.200,215.115 277.200 C 212.910 277.200,206.425 270.596,202.600 264.455 C 202.380 264.102,201.705 263.058,201.100 262.135 C 199.453 259.622,199.464 259.598,203.055 257.562 C 203.795 257.143,205.030 256.440,205.800 256.000 C 206.570 255.560,207.830 254.840,208.600 254.400 C 209.370 253.960,210.630 253.240,211.400 252.800 C 212.170 252.360,213.475 251.619,214.300 251.153 C 215.125 250.687,216.250 250.006,216.800 249.639 C 217.350 249.272,218.340 248.713,219.000 248.398 C 219.660 248.082,220.920 247.363,221.800 246.800 C 222.680 246.237,223.940 245.518,224.600 245.202 C 225.260 244.887,226.250 244.328,226.800 243.961 C 227.350 243.594,228.475 242.913,229.300 242.447 C 230.125 241.981,231.430 241.240,232.200 240.800 C 232.970 240.360,234.230 239.640,235.000 239.200 C 235.770 238.760,237.030 238.040,237.800 237.600 C 238.570 237.160,239.830 236.440,240.600 236.000 C 241.370 235.560,242.630 234.840,243.400 234.400 C 244.170 233.960,245.475 233.219,246.300 232.753 C 247.125 232.287,248.250 231.606,248.800 231.239 C 249.350 230.872,250.340 230.313,251.000 229.998 C 251.660 229.682,252.920 228.963,253.800 228.400 C 254.680 227.837,255.940 227.117,256.600 226.800 C 257.260 226.483,258.520 225.751,259.400 225.172 C 261.885 223.536,262.504 223.362,263.134 224.121 M118.770 231.946 C 119.043 232.746,119.612 234.163,120.034 235.096 C 120.455 236.028,120.800 236.939,120.800 237.121 C 120.800 237.302,121.160 238.195,121.600 239.106 C 122.040 240.016,122.400 240.916,122.400 241.106 C 122.400 241.295,122.760 242.195,123.200 243.106 C 123.640 244.016,124.000 245.004,124.000 245.301 C 124.000 245.597,124.160 246.011,124.355 246.220 C 125.457 247.399,125.242 248.343,123.718 249.020 C 119.049 251.097,114.110 253.707,111.938 255.247 C 109.970 256.643,107.930 255.191,105.767 250.855 C 105.427 250.173,104.992 249.519,104.800 249.400 C 104.411 249.160,104.308 248.973,100.848 242.230 C 98.203 237.076,98.035 236.492,99.100 236.151 C 99.485 236.028,100.250 235.740,100.800 235.510 C 102.245 234.907,103.682 234.336,104.600 234.000 C 105.479 233.678,106.808 233.151,108.500 232.454 C 109.105 232.204,110.005 231.844,110.500 231.654 C 113.111 230.648,115.624 229.600,116.400 229.192 C 117.134 228.806,118.066 229.889,118.770 231.946 M96.847 243.500 C 98.223 246.305,99.990 249.594,100.774 250.809 C 101.558 252.025,102.380 253.303,102.600 253.650 C 102.820 253.996,103.690 255.282,104.534 256.506 L 106.067 258.731 101.136 263.599 L 96.204 268.466 94.105 267.368 C 92.951 266.765,91.707 265.940,91.341 265.535 C 90.975 265.131,90.443 264.800,90.157 264.800 C 88.400 264.800,79.052 254.042,76.356 248.917 C 74.902 246.152,74.911 245.913,76.500 245.264 C 77.215 244.972,78.250 244.544,78.800 244.313 C 79.350 244.082,80.160 243.761,80.600 243.600 C 81.479 243.278,82.808 242.751,84.500 242.054 C 85.105 241.804,86.005 241.444,86.500 241.254 C 89.274 240.185,91.661 239.184,92.400 238.777 C 93.922 237.940,94.333 238.376,96.847 243.500 M161.937 245.553 C 162.347 245.813,162.371 246.094,162.037 246.746 C 161.797 247.216,161.403 247.985,161.162 248.455 C 158.949 252.777,156.457 256.095,152.110 260.500 C 150.211 262.425,148.509 264.000,148.329 264.000 C 147.883 264.000,147.913 262.946,148.383 262.095 C 149.204 260.608,150.103 255.178,150.300 250.521 C 150.493 245.952,150.560 245.631,151.353 245.475 C 152.987 245.154,161.406 245.216,161.937 245.553 M146.400 248.310 C 146.400 256.475,143.530 265.551,140.037 268.430 C 138.627 269.592,137.600 269.472,137.600 268.146 C 137.600 267.840,137.441 267.277,137.247 266.895 C 136.916 266.245,136.579 265.447,135.600 263.000 C 135.380 262.450,135.020 261.550,134.800 261.000 C 134.580 260.450,134.220 259.550,134.000 259.000 C 133.780 258.450,133.420 257.550,133.200 257.000 C 132.980 256.450,132.620 255.550,132.400 255.000 C 132.180 254.450,131.836 253.595,131.636 253.100 C 130.835 251.117,130.851 250.859,131.810 250.230 C 132.339 249.884,133.051 249.600,133.391 249.600 C 133.732 249.600,134.323 249.435,134.705 249.234 C 135.087 249.032,136.660 248.513,138.200 248.079 C 139.740 247.646,141.630 247.109,142.400 246.886 C 145.705 245.931,146.400 246.179,146.400 248.310 M127.200 252.925 C 127.200 253.214,127.560 254.195,128.000 255.106 C 128.440 256.016,128.800 256.916,128.800 257.106 C 128.800 257.295,129.160 258.195,129.600 259.106 C 130.040 260.016,130.400 260.916,130.400 261.106 C 130.400 261.295,130.760 262.195,131.200 263.106 C 131.640 264.016,132.000 264.916,132.000 265.106 C 132.000 265.295,132.360 266.195,132.800 267.106 C 133.240 268.016,133.600 269.004,133.600 269.301 C 133.600 269.597,133.823 270.063,134.097 270.337 C 135.350 271.590,131.007 271.869,127.800 270.740 C 121.152 268.400,110.929 260.160,113.300 259.052 C 113.575 258.923,114.700 258.279,115.800 257.620 C 116.900 256.962,119.060 255.810,120.600 255.062 C 126.559 252.165,127.200 251.957,127.200 252.925 M111.775 264.929 C 114.967 268.201,119.957 271.936,122.100 272.658 C 122.485 272.787,122.800 273.166,122.800 273.500 C 122.800 274.647,109.190 273.702,105.600 272.305 C 105.270 272.176,104.131 271.832,103.069 271.539 C 99.742 270.622,99.793 270.368,104.142 266.166 C 108.766 261.697,108.641 261.717,111.775 264.929 " stroke="none" fill="#891010" fill-rule="evenodd"></path></g></svg>